<?xml version="1.0" encoding="UTF-8"?>
<svg id="Capa_1" data-name="Capa 1" xmlns="http://www.w3.org/2000/svg" viewBox="0 0 477.2 477.2">
  <defs>
    <style>
      .cls-1 {
        fill: #000;
      }

      .cls-1, .cls-2, .cls-3, .cls-4 {
        stroke-width: 0px;
      }

      .cls-2 {
        fill: #f85484;
      }

      .cls-3 {
        fill: #4da77d;
      }

      .cls-4 {
        fill: #fdfd57;
      }
    </style>
  </defs>
  <rect class="cls-4" x="9.07" y="11.56" width="462.94" height="457.37"/>
  <g>
    <g>
      <path class="cls-2" d="M100.22,446.6c-.75,0-1.4-.54-1.53-1.28l-9.96-56.32c-.36-2.03-2.01-2.93-3.5-2.93s-3.13.9-3.5,2.93l-10.1,56.33c-.13.74-.77,1.28-1.53,1.28h-18.31c-.75,0-1.4-.54-1.53-1.28l-20.14-112.95c-.08-.45.04-.92.34-1.27.3-.35.73-.56,1.19-.56h16.1c.78,0,1.44.58,1.54,1.35l8.6,66.27c.24,1.82,1.68,3.09,3.52,3.09,1.84,0,3.29-1.28,3.53-3.11l8.35-66.26c.1-.77.76-1.36,1.54-1.36h21.16c.78,0,1.44.58,1.54,1.36l8.35,66.25c.23,1.83,1.68,3.11,3.53,3.11,1.84,0,3.29-1.27,3.52-3.09l8.6-66.27c.1-.77.76-1.35,1.54-1.35h15.76c.46,0,.89.2,1.19.56.3.35.42.82.34,1.27l-20.14,112.95c-.13.74-.77,1.28-1.53,1.28h-18.48Z"/>
      <path class="cls-1" d="M138.83,331.55c.22,0,.36.12.42.2.06.07.16.23.12.45l-20.14,112.95c-.05.26-.28.46-.54.46h-18.48c-.27,0-.5-.19-.54-.46l-9.96-56.32c-.39-2.21-2.24-3.76-4.48-3.76s-4.08,1.54-4.48,3.75l-10.1,56.33c-.05.26-.28.45-.54.45h-18.31c-.27,0-.5-.19-.54-.46l-20.14-112.95c-.04-.22.06-.38.12-.45.06-.07.2-.2.42-.2h16.1c.28,0,.51.21.55.48l8.6,66.27c.3,2.34,2.16,3.97,4.51,3.97s4.22-1.64,4.52-3.98l8.35-66.26c.03-.28.27-.48.55-.48h21.16c.28,0,.51.21.55.48l8.35,66.26c.3,2.35,2.15,3.98,4.52,3.98s4.21-1.63,4.51-3.97l8.6-66.27c.04-.27.27-.48.55-.48h15.76M138.83,329.55h-15.76c-1.28,0-2.37.95-2.53,2.22l-8.6,66.27c-.19,1.48-1.36,2.22-2.53,2.22s-2.35-.74-2.53-2.23l-8.35-66.26c-.16-1.28-1.25-2.23-2.53-2.23h-21.16c-1.29,0-2.37.96-2.53,2.23l-8.35,66.26c-.19,1.49-1.36,2.23-2.53,2.23s-2.34-.74-2.53-2.22l-8.6-66.27c-.17-1.27-1.25-2.22-2.53-2.22h-16.1c-1.59,0-2.79,1.44-2.51,3l20.14,112.95c.22,1.22,1.28,2.1,2.51,2.1h18.31c1.24,0,2.29-.89,2.51-2.1l10.1-56.33c.25-1.4,1.38-2.1,2.51-2.1s2.26.7,2.51,2.11l9.96,56.32c.22,1.22,1.27,2.11,2.51,2.11h18.48c1.24,0,2.3-.89,2.51-2.1l20.14-112.95c.28-1.56-.92-3-2.51-3h0Z"/>
    </g>
    <g>
      <path class="cls-2" d="M182.44,447.97c-9.84,0-17.72-2.81-23.43-8.36-5.7-5.54-8.59-13.79-8.59-24.52v-53.21c0-10.84,3.06-19.14,9.08-24.67,6.05-5.56,14.17-8.38,24.13-8.38s17.41,2.81,23.17,8.36c5.76,5.54,8.68,13.84,8.68,24.69v53.21c0,10.61-3.09,18.82-9.17,24.41-6.11,5.62-14.14,8.46-23.87,8.46ZM183.12,345.83c-4.79,0-8.32,1.71-10.5,5.08-2.09,3.23-3.16,8.08-3.16,14.4v47.39c0,12.13,4.6,18.28,13.66,18.28,4.32,0,7.68-1.67,9.97-4.96,2.22-3.18,3.35-7.66,3.35-13.32v-47.39c0-6.22-1.09-11.04-3.24-14.32-2.24-3.42-5.63-5.16-10.08-5.16Z"/>
      <path class="cls-1" d="M183.64,329.84c9.34,0,16.91,2.72,22.48,8.08,5.55,5.34,8.37,13.4,8.37,23.97v53.21c0,10.32-2.98,18.28-8.85,23.68-5.92,5.44-13.72,8.2-23.2,8.2s-17.22-2.72-22.73-8.08c-5.5-5.34-8.29-13.35-8.29-23.8v-53.21c0-10.54,2.95-18.6,8.76-23.93,5.86-5.38,13.75-8.11,23.46-8.11M183.12,431.98c4.67,0,8.3-1.81,10.79-5.39,2.34-3.35,3.53-8.02,3.53-13.89v-47.39c0-6.51-1.11-11.37-3.41-14.87-2.44-3.72-6.11-5.61-10.91-5.61-5.15,0-8.96,1.86-11.35,5.53-2.23,3.44-3.32,8.33-3.32,14.95v47.39c0,15.94,7.97,19.28,14.66,19.28M183.64,327.84c-10.27,0-18.54,2.88-24.81,8.64-6.27,5.76-9.41,14.23-9.41,25.41v53.21c0,11.06,2.97,19.48,8.9,25.24,5.93,5.76,13.97,8.64,24.13,8.64s18.22-2.91,24.55-8.73c6.33-5.82,9.5-14.2,9.5-25.15v-53.21c0-11.18-3-19.65-8.98-25.41-5.99-5.76-13.95-8.64-23.87-8.64h0ZM183.12,429.98c-8.44,0-12.66-5.76-12.66-17.28v-47.39c0-6.16,1-10.78,3-13.86,2-3.08,5.22-4.62,9.67-4.62,4.11,0,7.19,1.57,9.24,4.7,2.06,3.14,3.08,7.73,3.08,13.77v47.39c0,5.47-1.06,9.72-3.17,12.75-2.11,3.02-5.16,4.54-9.15,4.54h0Z"/>
    </g>
    <g>
      <path class="cls-2" d="M278.08,446.6c-.68,0-1.28-.44-1.48-1.09l-13.76-43.82c-.47-1.49-1.83-2.49-3.39-2.49h-5.67c-1.96,0-3.55,1.59-3.55,3.55v42.29c0,.86-.7,1.55-1.55,1.55h-15.94c-.86,0-1.55-.7-1.55-1.55v-112.95c0-.86.7-1.55,1.55-1.55h29.62c11.28,0,19.34,2.7,23.96,8.04,4.66,5.38,7.03,14.19,7.03,26.21,0,7.71-1.07,14.2-3.17,19.29-1.81,4.38-4.65,7.85-8.45,10.3-1.41.91-2.04,2.62-1.51,4.16l15.79,46c.17.48.09.99-.2,1.41-.29.41-.75.65-1.26.65h-16.45ZM253.78,347.37c-1.96,0-3.55,1.59-3.55,3.55v27.92c0,1.96,1.59,3.55,3.55,3.55h8.4c4.58,0,7.81-1.58,9.59-4.7,1.68-2.94,2.53-7.28,2.53-12.9s-.82-9.93-2.44-12.81c-1.73-3.06-4.98-4.61-9.68-4.61h-8.4Z"/>
      <path class="cls-1" d="M262.35,331.55c10.97,0,18.78,2.59,23.21,7.69,4.5,5.19,6.78,13.79,6.78,25.55,0,7.58-1.04,13.94-3.1,18.91-1.73,4.19-4.45,7.5-8.07,9.84-1.8,1.17-2.59,3.35-1.91,5.32l15.79,46c.08.23-.01.41-.07.5-.06.09-.2.23-.45.23h-16.45c-.24,0-.45-.16-.53-.39l-13.76-43.82c-.6-1.91-2.34-3.19-4.34-3.19h-5.67c-2.51,0-4.55,2.04-4.55,4.55v42.29c0,.3-.25.55-.55.55h-15.94c-.3,0-.55-.25-.55-.55v-112.95c0-.3.25-.55.55-.55h29.61M253.78,383.39h8.4c4.97,0,8.49-1.75,10.46-5.2,1.79-3.13,2.66-7.51,2.66-13.4s-.84-10.22-2.57-13.3c-1.91-3.4-5.47-5.12-10.55-5.12h-8.4c-2.51,0-4.55,2.04-4.55,4.55v27.92c0,2.51,2.04,4.55,4.55,4.55M262.35,329.55h-29.61c-1.41,0-2.55,1.14-2.55,2.55v112.95c0,1.41,1.14,2.55,2.55,2.55h15.94c1.41,0,2.55-1.14,2.55-2.55v-42.29c0-1.41,1.14-2.55,2.55-2.55h5.67c1.11,0,2.1.72,2.43,1.79l13.76,43.82c.33,1.06,1.32,1.79,2.43,1.79h16.45c1.75,0,2.98-1.72,2.41-3.38l-15.79-46c-.39-1.13.1-2.34,1.11-2.99,3.99-2.58,6.93-6.17,8.83-10.76,2.17-5.25,3.25-11.8,3.25-19.68,0-12.32-2.42-21.27-7.27-26.86-4.85-5.59-13.09-8.38-24.72-8.38h0ZM253.78,381.39c-1.41,0-2.55-1.14-2.55-2.55v-27.92c0-1.41,1.14-2.55,2.55-2.55h8.4c4.33,0,7.27,1.37,8.81,4.1,1.54,2.74,2.31,6.85,2.31,12.32s-.8,9.61-2.4,12.4c-1.6,2.79-4.51,4.19-8.73,4.19h-8.4Z"/>
    </g>
    <g>
      <path class="cls-2" d="M359.05,446.6c-.64,0-1.21-.39-1.44-.98l-15.24-38.76c-.54-1.37-1.84-2.25-3.31-2.25-1.35,0-2.56.75-3.17,1.95l-6.74,13.36c-.25.49-.38,1.05-.38,1.6v23.53c0,.86-.7,1.55-1.55,1.55h-15.77c-.86,0-1.55-.7-1.55-1.55v-112.95c0-.86.7-1.55,1.55-1.55h15.77c.86,0,1.55.7,1.55,1.55v41.22c0,1.03.4,1.96,1.14,2.62.66.59,1.55.93,2.45.93,1.42,0,2.61-.78,3.21-2.09l19.59-43.32c.25-.55.81-.91,1.41-.91h15.24c.55,0,1.03.27,1.32.74s.31,1.02.06,1.51l-22.23,43.84c-.47.92-.51,2-.12,2.95l26.52,64.87c.2.49.15,1.02-.15,1.45-.29.44-.76.69-1.29.69h-16.88Z"/>
      <path class="cls-1" d="M371.81,331.55c.26,0,.4.14.47.26.07.12.14.31.02.54l-22.23,43.84c-.6,1.18-.65,2.56-.15,3.78l26.52,64.87c.1.24,0,.43-.05.52-.06.09-.2.24-.46.24h-16.88c-.23,0-.43-.14-.51-.35l-15.24-38.76c-.69-1.75-2.35-2.89-4.24-2.89-1.73,0-3.28.96-4.06,2.5l-6.74,13.36c-.32.63-.49,1.34-.49,2.05v23.53c0,.3-.25.55-.55.55h-15.77c-.3,0-.55-.25-.55-.55v-112.95c0-.3.25-.55.55-.55h15.77c.3,0,.55.25.55.55v41.22c0,2.85,2.33,4.56,4.58,4.56,1.79,0,3.37-1.03,4.12-2.68l19.59-43.32c.09-.2.29-.32.5-.32h15.24M371.81,329.55h-15.24c-1,0-1.91.59-2.33,1.5l-19.59,43.32c-.47,1.03-1.38,1.5-2.29,1.5-1.29,0-2.58-.94-2.58-2.56v-41.22c0-1.41-1.14-2.55-2.55-2.55h-15.77c-1.41,0-2.55,1.14-2.55,2.55v112.95c0,1.41,1.14,2.55,2.55,2.55h15.77c1.41,0,2.55-1.14,2.55-2.55v-23.53c0-.4.09-.79.27-1.15l6.74-13.36c.48-.94,1.38-1.4,2.27-1.4.98,0,1.96.55,2.38,1.62l15.24,38.76c.38.98,1.33,1.62,2.38,1.62h16.88c1.81,0,3.05-1.84,2.36-3.52l-26.52-64.87c-.28-.69-.25-1.46.09-2.12l22.23-43.84c.86-1.7-.37-3.71-2.28-3.71h0Z"/>
    </g>
    <g>
      <path class="cls-2" d="M415.83,447.97c-10.04,0-17.79-2.94-23.04-8.74-4.86-5.36-7.56-13.02-8.05-22.75-.02-.4.13-.79.41-1.09.3-.31.71-.49,1.14-.49h14.83c.79,0,1.47.6,1.54,1.37.43,4.84,1.63,8.57,3.57,11.08,2.3,2.98,5.7,4.5,10.12,4.5s7.71-1.4,9.78-4.16c2.04-2.71,3.02-6.82,3.02-12.58,0-4.77-1.14-8.63-3.38-11.48-2.2-2.8-5.92-5.4-11.07-7.73l-8.05-3.6c-7.43-3.33-12.85-7.47-16.09-12.31-3.24-4.83-4.88-11.43-4.88-19.63,0-9.61,2.81-17.37,8.36-23.08,5.54-5.7,13.15-8.59,22.64-8.59s16.68,2.85,21.76,8.48c4.69,5.19,7.41,12.64,8.08,22.12.03.41-.11.8-.4,1.11-.3.32-.72.5-1.15.5h-14.22c-.8,0-1.48-.62-1.54-1.41-.32-4.36-1.29-7.79-2.88-10.2-1.95-2.97-5.2-4.47-9.65-4.47-5.69,0-12.46,2.52-12.46,14.52,0,4.31,1.02,7.83,3.03,10.45,1.98,2.58,5.31,4.9,9.89,6.89l7.69,3.42c8,3.56,13.87,8.04,17.46,13.33,3.58,5.28,5.39,12.46,5.39,21.34,0,10.63-2.78,18.92-8.28,24.63-5.48,5.7-13.41,8.59-23.57,8.59Z"/>
      <path class="cls-1" d="M416.69,329.67c9.19,0,16.06,2.67,21.02,8.15,4.54,5.02,7.17,12.27,7.82,21.53.01.17-.07.29-.13.36-.06.07-.2.18-.42.18h-14.22c-.28,0-.52-.22-.54-.49-.34-4.6-1.33-8.09-3.04-10.68-2.15-3.27-5.68-4.92-10.48-4.92-6.14,0-13.46,2.69-13.46,15.52,0,4.54,1.09,8.26,3.24,11.06,2.11,2.75,5.48,5.11,10.27,7.19l7.7,3.42c7.83,3.48,13.56,7.85,17.03,12.98,3.46,5.11,5.22,12.1,5.22,20.78,0,10.37-2.69,18.42-8,23.94-5.28,5.5-12.97,8.28-22.85,8.28s-17.24-2.83-22.3-8.41c-4.7-5.19-7.32-12.64-7.79-22.13,0-.16.07-.28.14-.35.06-.07.2-.18.42-.18h14.83c.28,0,.52.2.54.45.46,5.11,1.69,8.9,3.77,11.6,2.5,3.24,6.17,4.89,10.91,4.89s8.31-1.54,10.58-4.56c2.17-2.89,3.22-7.2,3.22-13.18,0-5-1.21-9.07-3.6-12.1-2.33-2.96-6.07-5.59-11.45-8.03l-8.04-3.59c-7.26-3.25-12.53-7.27-15.67-11.95-3.12-4.66-4.71-11.08-4.71-19.07,0-9.34,2.72-16.87,8.08-22.39,5.34-5.5,12.72-8.29,21.92-8.29M416.69,327.67c-9.81,0-17.59,2.96-23.35,8.9-5.76,5.93-8.64,13.86-8.64,23.78,0,8.44,1.68,15.17,5.05,20.19,3.37,5.02,8.87,9.24,16.51,12.66l8.04,3.59c5.02,2.28,8.58,4.76,10.69,7.44s3.17,6.3,3.17,10.86c0,5.47-.94,9.47-2.82,11.98-1.88,2.51-4.88,3.76-8.98,3.76s-7.21-1.37-9.32-4.11c-1.82-2.37-2.94-5.88-3.36-10.55-.12-1.3-1.23-2.28-2.53-2.28h-14.83c-1.44,0-2.62,1.19-2.55,2.63.5,10.02,3.27,17.81,8.31,23.37,5.48,6.04,13.4,9.07,23.78,9.07s18.59-2.97,24.3-8.9c5.7-5.93,8.55-14.37,8.55-25.32,0-9.12-1.85-16.42-5.56-21.9-3.71-5.47-9.67-10.04-17.88-13.69l-7.7-3.42c-4.45-1.94-7.61-4.13-9.5-6.59-1.88-2.45-2.82-5.73-2.82-9.84,0-9.01,3.82-13.52,11.46-13.52,4.11,0,7.04,1.34,8.81,4.02,1.5,2.28,2.4,5.51,2.71,9.72.1,1.32,1.21,2.34,2.54,2.34h14.22c1.46,0,2.65-1.23,2.55-2.68-.69-9.76-3.47-17.34-8.33-22.73-5.31-5.87-12.8-8.81-22.5-8.81h0Z"/>
    </g>
  </g>
  <g>
    <path class="cls-3" d="M22.72,476.2c-5.8,0-11.26-2.26-15.36-6.36-.49-.49-.96-1.01-1.4-1.54-2.25-2.73-3.81-5.99-4.52-9.44-.07-.35-.14-.71-.19-1.07-.17-1.09-.25-2.2-.25-3.31V22.72C1,10.75,10.75,1,22.72,1h431.75c11.98,0,21.72,9.75,21.72,21.72v431.75c0,1.11-.08,2.22-.25,3.31-.06.36-.12.71-.19,1.07-.71,3.45-2.27,6.71-4.52,9.44-.44.53-.91,1.05-1.4,1.54-4.1,4.1-9.56,6.36-15.36,6.36H22.72ZM18.18,317.93c-.55,0-1,.45-1,1v135.55c0,3.06,2.49,5.54,5.54,5.54h431.75c3.06,0,5.54-2.49,5.54-5.54v-135.55c0-.55-.45-1-1-1H18.18ZM22.72,17.18c-3.06,0-5.54,2.49-5.54,5.54v278.03c0,.55.45,1,1,1h440.84c.55,0,1-.45,1-1V22.72c0-3.06-2.49-5.54-5.54-5.54H22.72Z"/>
    <path class="cls-1" d="M454.47,2c11.43,0,20.72,9.3,20.72,20.72v431.75c0,1.06-.08,2.12-.24,3.16-.05.34-.11.68-.18,1.02-.67,3.29-2.16,6.4-4.31,9-.42.51-.87,1-1.34,1.47-3.91,3.91-9.12,6.07-14.65,6.07H22.72c-5.54,0-10.74-2.16-14.65-6.07-.47-.47-.92-.96-1.34-1.47-2.15-2.6-3.64-5.71-4.31-9-.07-.34-.13-.68-.18-1.02-.16-1.04-.24-2.1-.24-3.16V22.72C2,11.3,11.3,2,22.72,2h431.75M18.18,302.75h440.84c1.1,0,2-.9,2-2V22.72c0-3.61-2.94-6.54-6.54-6.54H22.72c-3.61,0-6.54,2.94-6.54,6.54v278.03c0,1.1.9,2,2,2M22.72,461.02h431.75c3.61,0,6.54-2.94,6.54-6.54v-135.55c0-1.1-.9-2-2-2H18.18c-1.1,0-2,.9-2,2v135.55c0,3.61,2.94,6.54,6.54,6.54M454.47,0H22.72C10.17,0,0,10.17,0,22.72v431.75h0c0,1.18.09,2.33.26,3.46.06.38.12.75.2,1.12.76,3.7,2.41,7.07,4.73,9.87.46.56.95,1.1,1.47,1.61,4.11,4.11,9.79,6.66,16.07,6.66h431.75c6.27,0,11.96-2.54,16.07-6.66.51-.51,1-1.05,1.47-1.61,2.32-2.81,3.97-6.18,4.73-9.87.08-.37.14-.74.2-1.12.17-1.13.26-2.28.26-3.46h0V22.72c0-12.55-10.17-22.72-22.72-22.72h0ZM18.18,300.75V22.72c0-2.51,2.04-4.54,4.54-4.54h431.75c2.51,0,4.54,2.04,4.54,4.54v278.03H18.18ZM22.72,459.02c-2.51,0-4.54-2.04-4.54-4.54v-135.55h440.84v135.55c0,2.51-2.04,4.54-4.54,4.54H22.72Z"/>
  </g>
  <g>
    <path class="cls-2" d="M36.53,285.35c-1.58,0-2.87-1.29-2.87-2.87V93.05c0-1.58,1.29-2.87,2.87-2.87h56.43c2.69,0,4.87-2.18,4.87-4.87v-48.8c0-1.58,1.29-2.87,2.87-2.87h63.61c1.58,0,2.87,1.29,2.87,2.87v107.3c0,2.69,2.18,4.87,4.87,4.87h67.54v-80.35c0-18.79,15.3-34.34,34.1-34.66l.98-.02h0s26.12-.01,26.12-.01c2,0,3.62,1.62,3.62,3.62v11.86c0,1.99-1.62,3.62-3.6,3.62-4.28,0-10.8-.02-16.41-.02s-8.82.01-10.27.03h-.99v.05c-8.03.52-14.41,7.22-14.41,15.37v33.9c0,25.23,19.77,45.71,45.01,46.6h14.37c3.78,0,7.39-1.61,9.91-4.43,2.52-2.81,3.72-6.6,3.3-10.38-.75-6.69-6.7-11.75-13.84-11.77-18.36-.05-32.2-14.97-32.2-34.69v-5.24c0-1.57,1.28-2.85,2.85-2.85h13.43c1.57,0,2.85,1.28,2.85,2.85v7.61c0,7.26,5.91,13.18,13.17,13.18h.33c8.33,0,16.28,3.17,22.37,8.92l.69.65.69-.65c6.09-5.75,14.04-8.92,22.37-8.92s16.28,3.17,22.37,8.92l.69.65.69-.65c6.09-5.75,14.04-8.92,22.37-8.92,4.15,0,8.22.79,12.12,2.35l1.37.55V37.26c0-1.99,1.62-3.62,3.62-3.62h11.9c2,0,3.62,1.62,3.62,3.62v145.17c0,16.9-12.25,31.2-28.49,33.26-1.38.17-2.77.26-4.14.26h0c-4.88,0-9.62-1.09-14.09-3.23l-1-.48-.38,1.04c-4.66,12.89-16.98,21.55-30.65,21.55-8.33,0-16.28-3.17-22.37-8.92l-.69-.65-.69.65c-6.09,5.75-14.04,8.92-22.37,8.92-.17-.01-.24-.02-.32-.02-4.54-.05-8.95-1.02-13.09-2.89l-1.05-.48-.32,1.11c-3.98,13.78-16.78,23.41-31.11,23.41-.63,0-1.26-.02-1.9-.05-17.11-.97-30.51-15.59-30.51-33.27v-8.71h-67.54c-2.69,0-4.87,2.18-4.87,4.87v63.68c0,1.58-1.29,2.87-2.87,2.87H36.53ZM57.66,109.32c-2.69,0-4.87,2.18-4.87,4.87v147.16c0,2.69,2.18,4.87,4.87,4.87h85.52c2.69,0,4.87-2.18,4.87-4.87V57.65c0-2.69-2.18-4.87-4.87-4.87h-21.34c-2.69,0-4.87,2.18-4.87,4.87v48.8c0,1.58-1.29,2.87-2.87,2.87h-56.43ZM258.73,223.02c0,7.07,5.26,13.1,11.98,13.74.44.04.87.06,1.3.06,7.32,0,13.28-5.96,13.28-13.28v-55.74h0v-3.07l-.68-.23c-9.05-3.02-17.19-7.87-24.18-14.43l-1.68-1.58v74.52ZM364.02,122.1c-1.49,0-2.99.24-4.46.72-5.4,1.75-9.03,6.88-9.03,12.77v66.61c0,7.44,6.05,13.49,13.49,13.49.44,0,.88-.02,1.32-.06,6.82-.65,12.17-6.79,12.17-13.96v-66.07c0-7.44-6.05-13.49-13.49-13.49ZM304.42,201.67c0,7.18,5.35,13.31,12.17,13.96.27.03.53.03.79.04h.52c7.44,0,13.49-6.04,13.49-13.47v-37.23l-1.37.54c-3.86,1.53-7.87,2.3-11.92,2.3h-13.69v33.85ZM410.14,122.1c-.44,0-.88.02-1.33.06-6.82.65-12.17,6.79-12.17,13.96v47.2c0,7.44,6.05,13.49,13.49,13.49.44,0,.88-.02,1.32-.06,6.82-.65,12.17-6.79,12.17-13.97v-47.21c0-7.43-6.06-13.48-13.49-13.48ZM172.05,167.82c-2.69,0-4.87,2.18-4.87,4.87v17.24c0,2.69,2.18,4.87,4.87,4.87h67.54v-16.3h0v-10.69s-67.54,0-67.54,0Z"/>
    <path class="cls-1" d="M275.52,34.64h25.28c1.44,0,2.62,1.17,2.62,2.62v11.86c0,1.44-1.17,2.62-2.61,2.62-4.27,0-10.77-.02-16.38-.02s-8.85.01-10.31.03l-1.97.05v.09c-8.11.99-14.41,7.92-14.41,16.29v33.9c0,25.78,20.2,46.69,45.98,47.6h.04s.04,0,.04,0h14.33c4.06,0,7.94-1.74,10.65-4.77,2.71-3.03,4-7.09,3.55-11.16-.8-7.19-7.18-12.63-14.83-12.66-8.79-.03-16.78-3.52-22.49-9.83-5.62-6.21-8.71-14.68-8.71-23.86v-5.24c0-1.02.83-1.85,1.85-1.85h13.43c1.02,0,1.85.83,1.85,1.85v7.61c0,7.81,6.36,14.18,14.17,14.18h.33c8.08,0,15.78,3.07,21.68,8.65l1.37,1.3,1.37-1.3c5.91-5.58,13.61-8.65,21.68-8.65s15.78,3.07,21.68,8.65l1.37,1.3,1.37-1.3c5.91-5.58,13.61-8.65,21.68-8.65,4.02,0,7.97.77,11.75,2.28l2.74,1.1V37.26c0-1.44,1.17-2.62,2.62-2.62h11.9c1.44,0,2.62,1.17,2.62,2.62v145.17c0,16.4-11.87,30.27-27.61,32.27-1.33.17-2.68.26-4.01.26-4.73,0-9.32-1.05-13.65-3.14l-1.99-.96-.75,2.08c-4.52,12.49-16.46,20.89-29.71,20.89-8.08,0-15.78-3.07-21.68-8.65l-1.37-1.3-1.37,1.3c-5.9,5.58-13.6,8.65-21.68,8.65h-.01c-.1,0-.2-.01-.3-.02-4.41-.04-8.68-.99-12.69-2.8l-2.1-.95-.64,2.22c-3.86,13.36-16.26,22.69-30.15,22.69-.61,0-1.23-.02-1.84-.05-16.58-.94-29.57-15.12-29.57-32.27v-9.7h-68.54c-3.24,0-5.87,2.63-5.87,5.87v63.68c0,1.03-.84,1.87-1.87,1.87H36.53c-1.03,0-1.87-.84-1.87-1.87V93.05c0-1.03.84-1.87,1.87-1.87h56.43c3.24,0,5.87-2.63,5.87-5.87v-48.8c0-1.03.84-1.87,1.87-1.87h63.61c1.03,0,1.87.84,1.87,1.87v107.3c0,3.24,2.63,5.87,5.87,5.87h68.54v-2s0-79.35,0-79.35c0-8.89,3.44-17.28,9.68-23.62,6.23-6.33,14.55-9.89,23.43-10.04l1.8-.03M57.66,267.22h85.52c3.24,0,5.87-2.63,5.87-5.87V57.65c0-3.24-2.63-5.87-5.87-5.87h-21.34c-3.24,0-5.87,2.63-5.87,5.87v48.8c0,1.03-.84,1.87-1.87,1.87h-56.43c-3.24,0-5.87,2.63-5.87,5.87v147.16c0,3.24,2.63,5.87,5.87,5.87M410.14,197.82c.47,0,.95-.02,1.42-.07,7.33-.7,13.07-7.27,13.07-14.96v-47.21c0-7.98-6.51-14.48-14.49-14.48-.47,0-.95.02-1.42.07-7.33.7-13.07,7.27-13.07,14.96v47.2c0,7.99,6.5,14.49,14.49,14.49M364.02,216.7c.47,0,.95-.02,1.42-.07,7.33-.7,13.07-7.27,13.07-14.96v-66.07c0-3.87-1.51-7.51-4.24-10.25-2.74-2.74-6.38-4.24-10.25-4.24-1.59,0-3.2.26-4.77.77-5.81,1.88-9.72,7.4-9.72,13.72v66.61c0,7.99,6.5,14.49,14.49,14.49M272.01,237.83c7.87,0,14.28-6.4,14.28-14.28v-56.74s0-1.35,0-1.35v-1.44l-1.37-.46c-8.91-2.97-16.93-7.75-23.81-14.21l-3.37-3.16v76.82c0,7.58,5.66,14.05,12.88,14.74.46.04.93.07,1.4.07M317.91,216.68c7.99,0,14.49-6.49,14.49-14.47v-38.71l-2.74,1.08c-3.74,1.48-7.63,2.23-11.55,2.23h-14.69v34.85c0,7.69,5.74,14.26,13.08,14.96.3.03.59.04.88.04h.16c.13,0,.25,0,.38,0M172.05,195.8h68.54v-18.26s0-8.72,0-8.72v-2s-2,0-2,0h-66.54c-3.24,0-5.87,2.63-5.87,5.87v17.24c0,3.24,2.63,5.87,5.87,5.87M273.68,32.64v.03c-19.43.33-35.08,16.15-35.08,35.66v79.35h-66.54c-2.14,0-3.87-1.73-3.87-3.87V36.51c0-2.14-1.73-3.87-3.87-3.87h-63.61c-2.14,0-3.87,1.73-3.87,3.87v48.8c0,2.14-1.73,3.87-3.87,3.87h-56.43c-2.14,0-3.87,1.73-3.87,3.87v189.42c0,2.14,1.73,3.87,3.87,3.87h127.78c2.14,0,3.87-1.73,3.87-3.87v-63.68c0-2.14,1.73-3.87,3.87-3.87h66.54v7.7c0,17.86,13.63,33.25,31.46,34.27.65.04,1.31.06,1.95.06,15.23,0,28.05-10.2,32.08-24.13,4.13,1.87,8.69,2.93,13.5,2.98.11,0,.22.02.33.02,8.94,0,17.04-3.51,23.06-9.2,6.02,5.69,14.12,9.2,23.06,9.2,14.55,0,26.91-9.27,31.59-22.21,4.4,2.11,9.31,3.33,14.52,3.33,1.4,0,2.82-.09,4.26-.27,16.96-2.15,29.36-17.16,29.36-34.26V37.26c0-2.55-2.07-4.62-4.62-4.62h-11.9c-2.55,0-4.62,2.07-4.62,4.62v67.14c-3.87-1.55-8.07-2.42-12.49-2.42-8.94,0-17.03,3.51-23.06,9.19-6.02-5.69-14.12-9.2-23.06-9.2s-17.04,3.51-23.06,9.2c-6.02-5.69-14.12-9.2-23.06-9.2h-.33c-6.72,0-12.17-5.46-12.17-12.18v-7.61c0-2.13-1.72-3.85-3.85-3.85h-13.43c-2.13,0-3.85,1.72-3.85,3.85v5.24c0,19.67,13.55,35.63,33.2,35.69,6.37.02,12.14,4.55,12.85,10.88.83,7.42-4.96,13.7-12.21,13.7h-14.33c-24.47-.87-44.05-20.93-44.05-45.6v-33.9c0-7.96,6.45-14.41,14.41-14.41v-.02c1.64-.02,5.65-.03,10.28-.03,5.61,0,12.11.01,16.38.02h.01c2.55,0,4.6-2.07,4.6-4.62v-11.86c0-2.55-2.07-4.62-4.62-4.62h-27.12ZM57.66,265.22c-2.14,0-3.87-1.73-3.87-3.87V114.19c0-2.14,1.73-3.87,3.87-3.87h56.43c2.14,0,3.87-1.73,3.87-3.87v-48.8c0-2.14,1.73-3.87,3.87-3.87h21.34c2.14,0,3.87,1.73,3.87,3.87v203.7c0,2.14-1.73,3.87-3.87,3.87H57.66ZM410.14,195.82c-6.9,0-12.49-5.59-12.49-12.49v-47.2c0-6.52,4.77-12.35,11.26-12.97.41-.04.82-.06,1.23-.06,6.9,0,12.49,5.59,12.49,12.48v47.21c0,6.52-4.77,12.35-11.26,12.97-.41.04-.82.06-1.23.06h0ZM364.02,214.7c-6.9,0-12.49-5.59-12.49-12.49h0v-66.61h0c0-5.3,3.29-10.19,8.33-11.82,1.41-.46,2.81-.67,4.16-.67,6.9,0,12.49,5.59,12.49,12.49h0v66.07c0,6.52-4.77,12.35-11.26,12.97-.41.04-.82.06-1.23.06h0ZM272.01,235.83c-.4,0-.8-.02-1.21-.06-6.38-.61-11.07-6.33-11.07-12.75v-72.21c6.95,6.52,15.3,11.56,24.55,14.65v3.35h0v54.74c0,6.78-5.5,12.28-12.28,12.28h0ZM317.91,214.68c-.11,0-.22,0-.33,0-.3,0-.6,0-.9-.04-6.5-.62-11.27-6.44-11.27-12.97v-32.85h12.69c4.35,0,8.48-.86,12.29-2.37v35.76c0,6.9-5.6,12.47-12.49,12.47h0ZM172.05,193.8c-2.14,0-3.87-1.73-3.87-3.87v-17.24c0-2.14,1.73-3.87,3.87-3.87h66.54v10.68s0,0,0,0v14.3h-66.54Z"/>
  </g>
</svg>