<?xml version="1.0" encoding="UTF-8"?>
<svg id="Capa_1" data-name="Capa 1" xmlns="http://www.w3.org/2000/svg" viewBox="0 0 210 210">
  <defs>
    <style>
      .cls-1 {
        fill: #ed0116;
      }

      .cls-1, .cls-2 {
        stroke-width: 0px;
      }

      .cls-2 {
        fill: #107c31;
      }
    </style>
  </defs>
  <g>
    <path class="cls-1" d="M39.54,170.57c0,3.96-.8,6.91-2.4,8.85-1.6,1.94-4.2,2.91-7.8,2.91h-3.45v13.76h-6.58v-37.24h10.04c3.67,0,6.29.97,7.85,2.91,1.56,1.94,2.35,4.88,2.35,8.8ZM32.9,170.57c0-1.98-.28-3.44-.84-4.37-.56-.94-1.54-1.4-2.94-1.4h-3.24v11.55h3.24c1.4,0,2.38-.47,2.94-1.4.56-.94.84-2.39.84-4.37Z"/>
    <path class="cls-1" d="M49.36,181.15v14.95h-6.64v-37.24h10.15c3.67,0,6.27.88,7.8,2.64,1.53,1.76,2.29,4.59,2.29,8.47,0,2.48-.34,4.55-1.03,6.21-.68,1.65-1.8,2.9-3.35,3.72l5.56,16.19h-6.91l-4.7-14.95h-3.18ZM52.82,175.21c1.33,0,2.25-.44,2.75-1.32.5-.88.76-2.19.76-3.91s-.24-3.02-.73-3.89c-.49-.86-1.41-1.3-2.78-1.3h-3.45v10.42h3.45Z"/>
    <path class="cls-1" d="M67.33,185.84v-16.78c0-3.53.99-6.2,2.97-8.01,1.98-1.82,4.59-2.73,7.83-2.73s5.64.91,7.53,2.73c1.89,1.82,2.83,4.49,2.83,8.01v16.78c0,3.45-1,6.1-3,7.93-2,1.84-4.58,2.75-7.74,2.75s-5.74-.91-7.61-2.73c-1.87-1.82-2.81-4.47-2.81-7.96ZM81.85,185.09v-14.95c0-1.91-.32-3.35-.97-4.34-.65-.99-1.62-1.48-2.91-1.48-1.4,0-2.42.49-3.05,1.46-.63.97-.94,2.43-.94,4.37v14.95c0,3.63,1.33,5.45,3.99,5.45,1.26,0,2.22-.48,2.89-1.43s1-2.29,1-4.02Z"/>
    <path class="cls-1" d="M92.32,190.11c2.3,0,3.45-1.21,3.45-3.62v-27.63h6.64v28.39c0,5.9-3.22,8.85-9.66,8.85h-1.3v-5.99h.86Z"/>
    <path class="cls-1" d="M113.75,174.19h8.63v5.94h-8.63v10.04h10.04v5.94h-16.62v-37.24h16.62v5.99h-10.04v9.34Z"/>
    <path class="cls-1" d="M127.19,185.84v-16.78c0-3.53.99-6.2,2.97-8.01,1.98-1.82,4.59-2.73,7.83-2.73s5.59.9,7.5,2.7c1.91,1.8,2.86,4.53,2.86,8.2v1.13h-6.64v-1.08c0-1.69-.35-2.94-1.05-3.75-.7-.81-1.65-1.21-2.83-1.21-1.4,0-2.42.49-3.05,1.46-.63.97-.94,2.43-.94,4.37v14.95c0,3.63,1.33,5.45,3.99,5.45,1.19,0,2.13-.41,2.83-1.24.7-.83,1.05-2.05,1.05-3.67v-.97h6.58v1.03c0,3.6-1,6.31-2.99,8.12-2,1.82-4.56,2.73-7.69,2.73s-5.74-.91-7.61-2.73c-1.87-1.82-2.81-4.47-2.81-7.96Z"/>
    <path class="cls-1" d="M163.67,164.85v31.25h-6.58v-31.25h-6.48v-5.99h19.48v5.99h-6.42Z"/>
    <path class="cls-1" d="M171.34,185.47h6.26c.07,1.83.44,3.18,1.11,4.05.67.86,1.65,1.3,2.94,1.3s2.24-.4,2.83-1.19.89-2.05.89-3.78c0-1.44-.33-2.58-1-3.43-.67-.85-1.79-1.63-3.37-2.35l-2.54-1.13c-2.41-1.08-4.15-2.41-5.21-3.99-1.06-1.58-1.59-3.71-1.59-6.37,0-3.13.91-5.63,2.73-7.5,1.82-1.87,4.27-2.81,7.37-2.81s5.42.93,7.1,2.78,2.56,4.52,2.67,8.01h-6.1c-.04-1.69-.33-2.96-.89-3.8-.56-.85-1.48-1.27-2.78-1.27-2.41,0-3.62,1.42-3.62,4.26,0,1.3.3,2.33.89,3.1s1.59,1.47,2.99,2.08l2.43,1.08c2.59,1.15,4.47,2.59,5.64,4.32s1.75,4.03,1.75,6.91c0,3.45-.9,6.12-2.7,7.99-1.8,1.87-4.35,2.81-7.66,2.81s-5.77-.95-7.5-2.86c-1.73-1.91-2.61-4.64-2.64-8.2Z"/>
  </g>
  <path class="cls-2" d="M96.39,13.65c-3.42.7-5.67,1.66-7.25,3.1-2.87,2.65-3.21,6.96-.75,9.64,1.23,1.35,1.17,1.23,1.86,3.47.71,2.34,1.19,3.33,2.17,4.65.78,1.02,1.61,1.76,2.31,2.04.24.09.88.15,1.41.15.71-.02,1.06.06,1.26.23.4.36.49,1.14.23,1.78-.71,1.69-1,5.25-.58,6.95.32,1.26.73,2.1,2.52,5.16.91,1.55,2.27,4.12,3.03,5.7l1.38,2.9v3.73c0,2.48-.09,4.52-.27,6.08-.14,1.29-.36,4.3-.49,6.69-.23,4.14-.38,5.41-.93,7.3-.21.73-.41,1-1.7,2.25-.82.79-2.22,2.1-3.15,2.9-1.44,1.28-1.95,1.61-3.73,2.49-4.06,1.98-10.17,5.99-12.01,7.88-.55.56-1.57,1.49-2.27,2.08l-1.29,1.06-.76-.3c-.43-.17-.93-.36-1.09-.43-.24-.09-.47-.03-.84.21-2.45,1.66-9.44,5.6-13.53,7.62l-2.36,1.19-1.37-1.06c-1.67-1.31-3.24-2.28-4.93-3.06-3.86-1.78-6.6-1.79-8.9-.06-1,.76-2.62,2.77-3.76,4.7-.88,1.51-1.38,2.07-2.93,3.28-1.13.88-2.25,2.25-3.82,4.62-.78,1.19-2.13,3.07-3,4.18-1.95,2.49-2.4,3.24-3.7,6.1-.56,1.25-1.2,2.43-1.41,2.66-.65.71-2.74,4.14-3.66,6.04-.93,1.92-2.28,5.87-3.33,9.72-.35,1.25-.62,2.3-.62,2.33,0,.02,43.8.05,97.32.05h76.05v-7.2s-32.22-.08-32.68-.16c-.67-.11-1.19-.44-1.46-.97-.29-.56-.32-2.48-.17-14.17.11-9.64.11-9.85-.23-12.24-.55-3.97-.58-7.54-.08-12.32.71-6.89.82-18.48.27-32.1-.14-3.51-.21-6.49-.17-6.63.06-.14.44-.32.87-.43.81-.18,2.13-.97,3.09-1.81,1.78-1.57,1.11-3.91-1.67-5.87-1.35-.93-2.07-1.67-2.86-2.9-1.16-1.79-1.51-3.38-2.19-9.79-.5-4.73-1-6.48-2.24-7.71-1.13-1.13-6.23-3.86-10.16-5.41-3.39-1.35-6.78-2.31-10.66-3.01-2.92-.53-3.44-.44-9.64,1.48-1.73.53-3.28.9-4.41,1.05-.96.14-2.66.38-3.79.55-2.24.35-2.95.32-4.12-.18-.84-.35-1.38-1.09-2.59-3.45-.68-1.34-.88-1.95-1.44-4.52-.44-1.96-1-3.77-1.44-4.65-.52-1-1.87-2.19-3.54-3.1-1.22-.67-2.22-.79-3.83-.46ZM142.54,40.98l1.75.35.56,1.14c.32.62.85,1.86,1.2,2.74s1.13,2.59,1.73,3.8c1.28,2.55,2.36,5.69,2.36,6.87,0,.55-.53,1.03-1.13,1.03-.44,0-.71-.21-2.31-1.87-1-1.02-2.04-2.17-2.31-2.57-.5-.71-1.54-2.78-1.82-3.6-.18-.5-4.71-5.66-5.75-6.51-.36-.32-.67-.62-.67-.71,0-.08.18-.38.41-.67l.4-.53,1.92.09c1.05.06,2.71.26,3.66.44ZM118.06,59.13c.75.53,1.78,1.58,2.19,2.19.33.52.3,1.22-.14,3.09s-.46,1.92-1.73,4.27c-2.36,4.38-6.61,10.2-7.36,10.1-.56-.08-.5-.9.2-2.93,1.6-4.61,3.04-10.4,3.35-13.37.14-1.26.24-1.66.67-2.43.99-1.75,1.48-1.92,2.83-.91ZM134.87,86.34c.64.67.78,1.13.99,3.19.09.91.36,3.18.61,5.02.52,3.83.58,5.2.4,8.29-.17,2.95.02,3.74,1.49,6.84,1.93,4.04,2.55,6.33,2.83,10.45.09,1.37.29,3.24.46,4.18.53,3.15,1.17,6.04,1.37,6.28.12.15.47.23,1.05.23.49,0,.97.09,1.11.18.58.47.82,3.6.43,5.52-.38,1.89-1,2.48-3.12,2.97-.76.17-1.58.43-1.86.55-.55.27-.96,1.02-.96,1.7,0,.82-.3,1.4-.91,1.7-1,.5-4.91.93-8.52.93-3.44-.02-3.1.03-10.61-1.46-3.53-.7-4.41-.93-4.26-1.08.11-.09,1.37-.96,2.78-1.92,2.4-1.63,2.68-1.76,3.95-2.08,1.11-.27,1.76-.56,3.3-1.46l1.92-1.14-.3-1.02c-.4-1.31-.78-2.07-1.99-3.95-1.78-2.72-2.01-3.32-2.24-5.85-.44-4.85-1.43-8.82-4.03-16.3-1-2.89-1.35-4.3-1.52-6.11-.11-1.06-.11-1.08.4-1.66.27-.32.99-.96,1.58-1.41,2.69-2.14,7.51-7.09,9.66-9.9,1.41-1.86,3.39-3.15,4.93-3.19.49-.02.67.08,1.08.52ZM99.77,98.15c1.86,5.12,2.93,8.58,3.92,12.59.3,1.22.76,2.92,1.02,3.8.84,2.87,1.87,7.28,2.49,10.55.65,3.39,1.86,4.59,4.77,4.77,1.22.08,1.32.11,1.78.58.62.67,1.26,2.02,1.35,2.92.08.67.03.81-.91,2.3l-.99,1.58-1.86,1.08c-1.02.59-1.93,1.2-2.02,1.34-.11.18-.11.46.02.91.09.36.17.67.15.67-.02.02-.64-.11-1.4-.29-1.16-.27-1.86-.32-4.49-.32-3.33-.02-3.79.05-8.79,1.11-2.93.61-5.95.87-7.68.64-1.48-.2-4.61-.94-5.44-1.29-1.7-.71-3.74-3.12-7.79-9.15-3.01-4.53-3.62-5.52-4.9-8.2-2.39-4.96-4-7.41-6.83-10.39-.5-.52-.87-.97-.84-.99.03-.03,1.13-.29,2.42-.56,3.89-.82,5.22-1.25,10.02-3.3,1.31-.55,2.81-1.29,3.36-1.64,1.22-.78,3.73-2.87,5.55-4.64,2.45-2.37,4.84-3.98,8.52-5.78,1.17-.56,2.75-1.38,3.5-1.82,1.16-.67,2.8-1.46,3.13-1.51.05-.02.91,2.27,1.92,5.03Z"/>
</svg>