<?xml version="1.0" encoding="UTF-8"?>
<svg id="Capa_1" data-name="Capa 1" xmlns="http://www.w3.org/2000/svg" viewBox="0 0 478.95 478.95">
  <defs>
    <style>
      .cls-1 {
        fill: #000;
      }

      .cls-1, .cls-2 {
        stroke-width: 0px;
      }

      .cls-3 {
        stroke-linejoin: round;
      }

      .cls-3, .cls-4 {
        stroke: #000;
        stroke-width: 2px;
      }

      .cls-3, .cls-2 {
        fill: #4da77d;
      }

      .cls-4 {
        fill: #85c5ee;
        stroke-miterlimit: 10;
      }
    </style>
  </defs>
  <rect class="cls-4" x="16.35" y="6.55" width="452.57" height="452.57"/>
  <path class="cls-3" d="M455.24,19.17c2.5,0,4.54,2.04,4.54,4.54v431.52c0,2.5-2.04,4.54-4.54,4.54H23.71c-2.5,0-4.54-2.04-4.54-4.54V23.71c0-2.5,2.04-4.54,4.54-4.54h431.52M455.24,1H23.71C11.17,1,1,11.17,1,23.71v431.52c0,12.54,10.17,22.71,22.71,22.71h431.52c12.54,0,22.71-10.17,22.71-22.71V23.71c0-12.54-10.17-22.71-22.71-22.71h0Z"/>
  <g>
    <g>
      <g>
        <path class="cls-2" d="M70.42,192.38c-5.05,0-9.15-4.11-9.15-9.15s4.11-9.15,9.15-9.15h6c12.62,0,23.76-8.48,27.09-20.61,17.87-65.22,77.61-110.76,145.29-110.76,39.09,0,76.15,14.91,104.34,41.97,28.11,26.99,44.51,63.24,46.2,102.08.06,1.48-.47,2.89-1.5,3.96-1.03,1.08-2.42,1.67-3.91,1.67H70.42Z"/>
        <path class="cls-1" d="M248.8,43.7c38.83,0,75.64,14.81,103.65,41.69,27.92,26.81,44.22,62.82,45.89,101.4.05,1.21-.38,2.35-1.22,3.23-.84.88-1.97,1.36-3.19,1.36H70.42c-4.5,0-8.15-3.66-8.15-8.15s3.66-8.15,8.15-8.15h6c13.07,0,24.61-8.78,28.05-21.35,8.5-31.02,27.26-59,52.83-78.8,26.39-20.43,58.03-31.23,91.5-31.23M248.8,41.7c-69.86,0-128.65,47.23-146.25,111.5-3.22,11.75-13.94,19.87-26.12,19.87h-6c-5.61,0-10.15,4.55-10.15,10.15s4.55,10.15,10.15,10.15h323.5c3.64,0,6.56-3.04,6.4-6.68-3.49-80.67-70-145-151.53-145h0Z"/>
      </g>
      <g>
        <path class="cls-2" d="M163.72,247.66c-3.51,0-6.98-1.55-9.77-4.36-3.12-3.14-4.9-7.38-4.87-11.63.05-7.65,6.67-13.96,14.76-14.06h.19c3.96,0,7.67,1.54,10.46,4.33,2.79,2.79,4.33,6.52,4.32,10.49,0,7.82-7.33,15.22-15.07,15.23h-.02Z"/>
        <path class="cls-1" d="M164.03,218.61c3.69,0,7.15,1.43,9.75,4.04,2.6,2.61,4.03,6.08,4.03,9.78,0,7.17-6.98,14.22-14.09,14.23-3.24,0-6.46-1.44-9.06-4.07-2.94-2.96-4.61-6.94-4.58-10.92.05-7.11,6.23-12.97,13.78-13.06h.18M164.03,216.61c-.07,0-.13,0-.2,0-8.67.11-15.7,6.82-15.75,15.05-.06,8.94,7.36,17,15.64,17h.02c8.24-.01,16.07-7.91,16.07-16.23,0-8.77-7.05-15.82-15.78-15.82h0Z"/>
      </g>
    </g>
    <g>
      <g>
        <path class="cls-2" d="M172.33,439.35c-2.31,0-4.19-1.88-4.19-4.19v-47.1c0-1.78-1.41-3.23-3.22-3.31-26.51-1.17-47.27-22.89-47.27-49.44v-21.36c0-2.32-1.89-4.21-4.21-4.21h-13.56c-5.78,0-11.23-2.54-14.94-6.97-3.72-4.43-5.27-10.23-4.27-15.92l11.77-66.76c.25-1.43,1.49-2.47,2.94-2.47h12.72c.88,0,1.72.39,2.29,1.07s.81,1.57.66,2.44l-11.01,62.42c-.34,1.91.18,3.86,1.43,5.35,1.25,1.49,3.08,2.34,5.02,2.34h25.92c2.06,0,3.73,1.67,3.73,3.73v38.34c0,18.19,14.8,32.99,32.99,32.99h13.77c2.06,0,3.73,1.67,3.73,3.73v65.23c0,2.26-1.84,4.1-4.1,4.1h-10.21Z"/>
        <path class="cls-1" d="M108.1,218.61c.81,0,1.3.44,1.52.71.22.27.57.83.44,1.62l-11.01,62.42c-.39,2.2.21,4.45,1.65,6.17,1.44,1.71,3.55,2.7,5.79,2.7h25.92c1.51,0,2.73,1.23,2.73,2.73v38.34c0,18.74,15.25,33.99,33.99,33.99h13.77c1.51,0,2.73,1.23,2.73,2.73v65.23c0,1.71-1.39,3.1-3.1,3.1h-10.21c-1.76,0-3.19-1.43-3.19-3.19v-47.1c0-2.31-1.83-4.21-4.18-4.31-25.97-1.15-46.31-22.42-46.31-48.44v-21.36c0-2.87-2.34-5.21-5.21-5.21h-13.56c-5.48,0-10.65-2.41-14.18-6.61-3.52-4.2-5-9.71-4.05-15.11l11.77-66.76c.17-.95.99-1.64,1.96-1.64h12.72M108.1,216.61h-12.72c-1.94,0-3.59,1.39-3.93,3.3l-11.77,66.76c-2.21,12.55,7.44,24.07,20.19,24.07h13.56c1.77,0,3.21,1.44,3.21,3.21v21.36c0,27.13,21.39,49.25,48.23,50.44,1.26.06,2.26,1.05,2.26,2.31v47.1c0,2.87,2.32,5.19,5.19,5.19h10.21c2.82,0,5.1-2.28,5.1-5.1v-65.23c0-2.61-2.12-4.73-4.73-4.73h-13.77c-17.67,0-31.99-14.32-31.99-31.99v-38.34c0-2.61-2.12-4.73-4.73-4.73h-25.92c-3.45,0-6.07-3.12-5.47-6.52l11.01-62.42c.43-2.44-1.45-4.68-3.93-4.68h0Z"/>
      </g>
      <g>
        <path class="cls-2" d="M329.61,439.35c-2.26,0-4.1-1.84-4.1-4.1v-29c0-.1-.01-.19-.04-.28v-42.52c0-29.27,11.5-47.03,21.65-62.7,2.97-4.58,5.76-8.9,8.32-13.48,14.67-26.25,18.3-50.73,18.77-66.65.05-1.62,1.36-2.88,2.98-2.88h12.5c.82,0,1.58.32,2.15.91.56.58.86,1.34.84,2.14-.49,18.07-4.55,45.84-21.12,75.49-2.85,5.1-5.94,9.87-8.92,14.48-10.05,15.51-18.71,28.88-18.71,52.7l.04,56.4v15.31c0,2.31-1.88,4.19-4.19,4.19h-10.17Z"/>
        <path class="cls-1" d="M389.69,218.74c.55,0,1.06.21,1.44.6.37.38.57.88.55,1.42-.49,17.96-4.52,45.56-21,75.03-2.84,5.08-5.91,9.83-8.91,14.45-10.11,15.61-18.84,29.1-18.84,53.21l.04,56.4v15.31c0,1.76-1.43,3.19-3.19,3.19h-10.17c-1.71,0-3.1-1.39-3.1-3.1v-29c0-.14-.01-.27-.04-.4v-42.4c0-28.98,11.42-46.6,21.49-62.16l.03-.05c2.96-4.57,5.75-8.88,8.32-13.49,14.77-26.42,18.43-51.08,18.9-67.11.03-1.07.9-1.91,1.98-1.91h12.5M389.69,216.74h-12.5c-2.16,0-3.92,1.7-3.98,3.85-.49,16.65-4.33,40.58-18.65,66.19-2.55,4.56-5.34,8.87-8.29,13.42-10.22,15.79-21.81,33.68-21.81,63.25v42.8h.04v29c0,2.82,2.28,5.1,5.1,5.1h10.17c2.87,0,5.19-2.32,5.19-5.19v-15.31l-.04-56.4c0-23.52,8.58-36.77,18.52-52.12,3-4.63,6.1-9.42,8.98-14.57,16.4-29.35,20.73-56.87,21.25-75.96.06-2.24-1.75-4.07-3.99-4.07h0Z"/>
      </g>
    </g>
  </g>
</svg>