<?xml version="1.0" encoding="UTF-8"?>
<svg id="Capa_1" data-name="Capa 1" xmlns="http://www.w3.org/2000/svg" viewBox="0 0 477.2 477.2">
  <defs>
    <style>
      .cls-1 {
        fill: #000;
      }

      .cls-1, .cls-2, .cls-3, .cls-4 {
        stroke-width: 0px;
      }

      .cls-5, .cls-2 {
        fill: #7c00ff;
      }

      .cls-5, .cls-6, .cls-7 {
        stroke: #000;
        stroke-miterlimit: 10;
      }

      .cls-3 {
        fill: #5cae48;
      }

      .cls-6 {
        fill: #ff8145;
      }

      .cls-6, .cls-7 {
        stroke-width: 2px;
      }

      .cls-4, .cls-7 {
        fill: #6088ee;
      }
    </style>
  </defs>
  <rect class="cls-6" x="7.13" y="9.92" width="462.94" height="457.37"/>
  <g>
    <path class="cls-3" d="M22.72,476.2c-5.8,0-11.26-2.26-15.36-6.36-.49-.49-.96-1-1.4-1.54-2.25-2.73-3.81-5.99-4.52-9.44-.07-.35-.14-.71-.19-1.07-.17-1.09-.25-2.2-.25-3.31V22.72C1,10.74,10.75,1,22.72,1h431.75c11.98,0,21.72,9.75,21.72,21.72v431.75c0,1.11-.08,2.22-.25,3.31-.05.36-.12.72-.19,1.07-.71,3.45-2.27,6.71-4.52,9.44-.44.54-.91,1.05-1.4,1.54-4.1,4.1-9.56,6.36-15.36,6.36H22.72ZM18.18,331.15c-.55,0-1,.45-1,1v122.33c0,3.06,2.49,5.54,5.54,5.54h431.75c3.06,0,5.54-2.49,5.54-5.54v-122.33c0-.55-.45-1-1-1H18.18ZM22.72,17.18c-3.06,0-5.54,2.49-5.54,5.54v291.25c0,.55.45,1,1,1h440.84c.55,0,1-.45,1-1V22.72c0-3.06-2.49-5.54-5.54-5.54H22.72Z"/>
    <path class="cls-1" d="M454.47,2c11.43,0,20.72,9.3,20.72,20.72v431.75c0,1.06-.08,2.12-.24,3.16-.05.34-.11.68-.18,1.02-.67,3.29-2.16,6.4-4.31,9-.42.51-.87,1-1.34,1.47-3.91,3.91-9.12,6.07-14.65,6.07H22.72c-5.54,0-10.74-2.16-14.65-6.07-.47-.47-.92-.96-1.34-1.47-2.15-2.6-3.64-5.71-4.31-9-.07-.34-.13-.68-.18-1.02-.16-1.04-.24-2.1-.24-3.16V22.72C2,11.3,11.3,2,22.72,2h431.75M18.18,315.97h440.84c1.1,0,2-.9,2-2V22.72c0-3.61-2.94-6.54-6.54-6.54H22.72c-3.61,0-6.54,2.94-6.54,6.54v291.24c0,1.1.9,2,2,2M22.72,461.02h431.75c3.61,0,6.54-2.94,6.54-6.54v-122.33c0-1.1-.9-2-2-2H18.18c-1.1,0-2,.9-2,2v122.33c0,3.61,2.94,6.54,6.54,6.54M454.47,0H22.72C10.17,0,0,10.17,0,22.72v431.75c0,1.18.09,2.33.26,3.46.06.38.12.75.2,1.12.76,3.7,2.41,7.07,4.73,9.88.46.56.95,1.1,1.47,1.61,4.11,4.11,9.79,6.66,16.07,6.66h431.75c6.27,0,11.96-2.54,16.07-6.66.51-.51,1-1.05,1.47-1.61,2.32-2.81,3.97-6.18,4.73-9.88.08-.37.14-.74.2-1.12.17-1.13.26-2.28.26-3.46V22.72C477.2,10.17,467.02,0,454.47,0h0ZM18.18,313.97V22.72c0-2.51,2.04-4.54,4.54-4.54h431.75c2.51,0,4.54,2.04,4.54,4.54v291.24H18.18ZM22.72,459.02c-2.51,0-4.54-2.04-4.54-4.54v-122.33h440.84v122.33c0,2.51-2.04,4.54-4.54,4.54H22.72Z"/>
  </g>
  <g>
    <g>
      <polygon class="cls-4" points="313.49 81.66 313.49 81.92 313.23 81.66 313.49 81.66"/>
      <polygon class="cls-1" points="313.49 81.66 313.23 81.66 313.49 81.92 313.49 81.66 313.49 81.66"/>
    </g>
    <g>
      <polygon class="cls-4" points="351.66 81.66 351.31 82.01 350.96 81.66 351.66 81.66"/>
      <polygon class="cls-1" points="351.66 81.66 350.96 81.66 351.31 82.01 351.66 81.66 351.66 81.66"/>
    </g>
    <line class="cls-7" x1="258.55" y1="197.25" x2="258.5" y2="197.3"/>
    <g>
      <path class="cls-4" d="M186.68,179.4l-29.88,29.89,29.95-29.94c.06-.06.12-.13.18-.19-.09.08-.17.16-.25.24Z"/>
      <path class="cls-1" d="M186.93,179.16c-.09.08-.17.16-.25.24l-29.88,29.89,29.95-29.94c.06-.06.12-.13.18-.19h0Z"/>
    </g>
    <g>
      <path class="cls-4" d="M156.84,149.45l-29.94,29.95c-.07.07-.13.13-.19.2.08-.07.15-.14.23-.22l29.83-29.83c.13-.13.25-.26.38-.39-.11.09-.21.19-.31.29Z"/>
      <path class="cls-1" d="M157.15,149.16c-.11.09-.21.19-.31.29l-29.94,29.95c-.07.07-.13.13-.19.2.08-.07.15-.14.23-.22l29.83-29.83c.13-.13.25-.26.38-.39h0Z"/>
    </g>
    <g>
      <path class="cls-4" d="M141.87,194.36c-.07.07-.13.13-.19.2.08-.07.15-.14.23-.22l29.82-29.83-29.86,29.85Z"/>
      <path class="cls-1" d="M171.73,164.51l-29.86,29.85c-.07.07-.13.13-.19.2.08-.07.15-.14.23-.22l29.82-29.83h0Z"/>
    </g>
    <g>
      <path class="cls-4" d="M216.56,209.31l-29.86,29.87,29.89-29.89s-.02,0-.03.02Z"/>
      <path class="cls-1" d="M216.59,209.29s-.02,0-.03.02l-29.86,29.87,29.89-29.89h0Z"/>
    </g>
    <g>
      <path class="cls-4" d="M209.12,292.34c-8.1,0-15.72-3.11-21.5-8.77l-.22-.23c-5.35-5.35-8.53-12.46-8.94-20l-.02-.38-.54-.54-.39-.03c-7.53-.41-14.64-3.58-20-8.94-5.36-5.36-8.54-12.46-8.95-20l-.02-.36-.52-.57-.42-.03c-7.55-.41-14.65-3.58-19.99-8.94l-.29-.29h0c-5.18-5.32-8.25-12.32-8.66-19.74l-.02-.4-.55-.53-.38-.03c-7.53-.42-14.61-3.59-19.95-8.93-7.11-7.1-10.3-17.25-8.52-27.15l.21-1.18h-45.86c-1.79,0-3.25-1.46-3.25-3.25v-12.66c0-1.79,1.46-3.25,3.25-3.25h58.19l25.8-25.8c5.8-5.8,13.52-9,21.72-9s15.51,3.03,21.25,8.53l.29.28h.26s-.08.21-.08.21l.5.48c5.02,5.24,8.03,12.14,8.44,19.4l.05.94h.96c7.53.4,14.66,3.58,20.04,8.96,5.37,5.37,8.55,12.49,8.95,20.05l.02.36.51.57.42.03c7.52.43,14.6,3.61,19.93,8.94,5.36,5.36,8.54,12.47,8.94,20.02l.02.4.56.53.38.03c7.54.41,14.64,3.58,19.99,8.93l1.31,1.23,28.6,28.6c.05.06.11.12.17.17,2.16,2.1,5.02,3.25,8.04,3.25s5.98-1.2,8.17-3.38c2.2-2.19,3.46-5.19,3.46-8.23s-1.23-5.87-3.46-8.11l-29.94-29.96-.11-.09-13.52-13.52c-1.82-1.82-2.82-4.23-2.82-6.79s.99-4.95,2.79-6.76c1.81-1.83,4.23-2.84,6.81-2.84s4.98,1,6.79,2.81l13.27,13.27.07.08c.06.07.11.13.18.2.08.08.15.15.23.22l29.93,29.95c2.17,2.11,5.03,3.27,8.05,3.27,3.09,0,5.98-1.2,8.16-3.39,4.46-4.45,4.5-11.75.08-16.26l-30.02-30.02c-.08-.08-.14-.13-.19-.18l-13.43-13.44c-1.82-1.82-2.82-4.23-2.82-6.78s1.01-5.01,2.85-6.83c1.81-1.79,4.2-2.77,6.75-2.77s4.97,1,6.79,2.81l13.32,13.31.12.15c.09.09.15.15.2.2l30.02,30.03c2.22,2.12,5.05,3.25,8.03,3.25,3.35,0,6.54-1.46,8.75-4.01,3.93-4.55,3.56-11.56-.84-15.96l-50.02-50.02.02-.02-8.64-8.64c-1.93-1.93-4.49-2.99-7.22-2.99h-67.56l-.3.29-16.85,16.86c-5.81,5.8-13.53,9-21.74,9h0c-7.98,0-15.55-3.04-21.3-8.57l-.29-.28h-.24s.07-.16.07-.16l-.47-.5c-5.5-5.72-8.54-13.27-8.54-21.25s3.2-15.94,9.02-21.74l15.97-15.97h-37.37c-2.03,0-4.02.83-5.45,2.27l-13.01,13c-3.8,3.8-8.85,5.9-14.22,5.9H43.59c-1.79,0-3.25-1.46-3.25-3.25v-12.66c0-1.79,1.46-3.25,3.25-3.25h70.61c2.94,0,5.69-1.14,7.77-3.22l12.05-12.05c3.8-3.8,8.85-5.89,14.23-5.89h181.53c5.4,0,10.48,2.1,14.3,5.93l15.22,15.23h74.3c1.79,0,3.25,1.47,3.25,3.26v12.64c0,1.79-1.46,3.25-3.25,3.25h-73.85c-5.4,0-10.48-2.1-14.31-5.92l-12.87-12.87c-1.5-1.5-3.58-2.36-5.71-2.36h-107.52c-2.49,0-4.82.97-6.58,2.72l-27.34,27.36c-2.19,2.18-3.4,5.09-3.4,8.19,0,3.1,1.21,6.01,3.4,8.21,2.2,2.19,5.11,3.39,8.2,3.39s6-1.2,8.19-3.39l17.45-17.45c3.79-3.79,8.82-5.87,14.18-5.87h71.04c5.37,0,10.42,2.09,14.22,5.89l48.92,48.92.64.66,8.02,8.03h57.32c1.79.01,3.25,1.47,3.25,3.26v12.64c0,1.79-1.46,3.25-3.25,3.25h-45.32s-.59.73-.59.73l.07.46c.3,1.78.46,3.64.46,5.54,0,3.95-.67,7.81-1.98,11.47-1.35,3.76-3.36,7.19-5.97,10.19-5.29,5.28-12.37,8.46-19.91,8.89l-.94.05v.96c-.2,3.62-1.06,7.2-2.55,10.59-1.53,3.5-3.69,6.65-6.41,9.38-5.35,5.35-12.45,8.53-19.99,8.94l-.41.02-.51.57-.03.36c-.21,3.68-1.06,7.26-2.55,10.64-1.53,3.49-3.69,6.64-6.4,9.35-5.35,5.35-12.45,8.53-20,8.95l-.94.05v.96c-.22,3.64-1.07,7.22-2.55,10.58-1.52,3.48-3.67,6.62-6.4,9.36-5.84,5.7-13.56,8.84-21.73,8.84s-16.13-3.24-22.01-9.12l-7.91-7.91-8.19,8.19c-5.8,5.8-13.52,9-21.72,9ZM266.81,244.82l-.07.16c-1.5,3.14-3.52,6-6,8.48l-8.14,8.15,8.19,8.19c2.18,2.18,5.08,3.38,8.17,3.38,3.32,0,6.5-1.44,8.7-3.94,4-4.56,3.66-11.61-.78-16.05l-8.79-8.79h-.83l-.44.42ZM239.01,220.18c-3.09,0-5.99,1.2-8.17,3.38l-29.88,29.88c-2.37,2.37-3.59,5.65-3.35,9,.24,3.35,1.93,6.43,4.65,8.46,1.93,1.44,4.25,2.21,6.71,2.21,3.18,0,6.31-1.3,8.59-3.58l29.63-29.63c2.18-2.18,3.38-5.08,3.38-8.17s-1.2-6-3.38-8.18c-2.18-2.18-5.08-3.38-8.17-3.38ZM170.77,239.6l.29.3c2.18,2.18,5.08,3.38,8.17,3.38s5.9-1.17,8.07-3.28l30.05-30.05.04-.06c2.12-2.17,3.29-5.03,3.29-8.06s-1.2-5.99-3.38-8.18c-2.19-2.18-5.09-3.38-8.18-3.38s-5.94,1.18-8.11,3.33l-29.94,29.95c-2.19,2.18-3.39,5.08-3.39,8.17s1.1,5.72,3.1,7.86h0ZM179.29,160.33c-3.09,0-5.99,1.2-8.17,3.38l-29.95,29.94c-.09.09-.17.17-.24.26-4.31,4.54-4.22,11.62.24,16.09,2.19,2.19,5.09,3.39,8.18,3.39s5.86-1.15,8.03-3.25l30.09-30.08.2-.21c2.06-2.15,3.19-4.98,3.19-7.97s-1.2-5.99-3.38-8.17c-2.18-2.18-5.08-3.38-8.17-3.38ZM149.31,130.53c-3.09,0-5.99,1.2-8.17,3.38l-29.83,29.83c-2.18,2.18-3.38,5.08-3.38,8.17s1.2,5.99,3.38,8.17c2.19,2.18,5.09,3.38,8.17,3.38s5.75-1.11,7.9-3.12c.09-.08.18-.17.28-.26l29.83-29.83.67-.69v-.03c1.76-2.09,2.72-4.73,2.72-7.46,0-3.09-1.21-5.99-3.4-8.17-2.18-2.18-5.08-3.38-8.17-3.38Z"/>
      <path class="cls-1" d="M329.78,41.34c5.06,0,10.02,2.05,13.6,5.63l14.93,14.94.6.59h74.7c1.24,0,2.25,1.02,2.25,2.26v12.64c0,1.24-1.01,2.25-2.25,2.25h-73.85c-5.14,0-9.97-1.99-13.6-5.62l-12.87-12.87c-1.69-1.69-4.03-2.66-6.41-2.66h-107.52c-2.75,0-5.34,1.07-7.28,3.02l-27.34,27.36c-2.38,2.37-3.69,5.53-3.69,8.89,0,3.37,1.31,6.53,3.69,8.92,2.39,2.38,5.55,3.68,8.9,3.68s6.51-1.31,8.9-3.69l17.44-17.44c3.6-3.6,8.38-5.58,13.47-5.58h71.04c5.1,0,9.9,1.99,13.51,5.6l48.17,48.17h0s1.39,1.4,1.39,1.4l7.73,7.74.6.59h57.72c1.24,0,2.25,1.02,2.25,2.26v12.64c0,1.24-1.01,2.25-2.25,2.25h-44.85s-.95,0-.95,0l-.57.71h0s-.03.04-.03.04l-.57.7.15.89c.29,1.73.44,3.53.44,5.37,0,3.83-.65,7.58-1.92,11.14-1.3,3.62-3.23,6.93-5.74,9.82-5.14,5.12-11.96,8.17-19.21,8.6h-1.95v1.96c-.19,3.53-1.02,6.97-2.45,10.24-1.48,3.38-3.57,6.43-6.2,9.07-5.18,5.18-12.04,8.25-19.33,8.65l-.78.05-.54.55-.53.54-.04.75c-.2,3.56-1.03,7.02-2.46,10.3-1.48,3.38-3.57,6.42-6.19,9.05-5.16,5.16-12.02,8.24-19.3,8.65h-1.95v1.95c-.21,3.56-1.03,7-2.45,10.24-1.46,3.36-3.55,6.4-6.17,9.03-5.66,5.52-13.13,8.56-21.04,8.56s-15.61-3.13-21.3-8.82l-7.2-7.2-1.41-1.41-1.41,1.41-7.48,7.48c-5.61,5.61-13.07,8.71-21.02,8.71s-15-2.93-20.56-8.25l-.45-.45c-5.18-5.18-8.25-12.05-8.65-19.35l-.05-.79-.56-.54-.54-.52-.75-.04c-7.29-.4-14.16-3.47-19.34-8.65-5.19-5.19-8.26-12.06-8.66-19.34l-.05-.76-.53-.54-.54-.56-.78-.04c-7.3-.4-14.17-3.47-19.33-8.65l-.33-.33c-4.99-5.14-7.94-11.89-8.33-19.05l-.05-.79-.56-.54-.54-.52-.75-.04c-7.28-.41-14.14-3.48-19.3-8.64-6.88-6.87-9.96-16.69-8.24-26.26l.42-2.35h-47.05c-1.24,0-2.25-1.01-2.25-2.25v-12.66c0-1.24,1.01-2.25,2.25-2.25h58.6l.59-.59,25.51-25.51c5.61-5.61,13.08-8.7,21.02-8.7s15.01,2.93,20.53,8.22l.6.6h0l.32.33c4.88,5.09,7.79,11.74,8.19,18.75v1.95h1.96c7.31.39,14.2,3.46,19.39,8.65,5.19,5.19,8.27,12.08,8.66,19.4l.05.76.53.54.54.55.77.04c7.27.42,14.12,3.49,19.28,8.65,5.19,5.19,8.26,12.06,8.65,19.36l.05.79.55.54.54.53.75.04c7.3.4,14.16,3.47,19.33,8.64l.02.02.02.02,1.27,1.19,28.58,28.58c.07.08.15.16.24.24,2.35,2.27,5.44,3.51,8.71,3.51s6.5-1.31,8.87-3.67c2.39-2.38,3.76-5.63,3.76-8.94s-1.33-6.39-3.76-8.81l-29.9-29.91c-.06-.06-.13-.12-.2-.18l-13.49-13.49c-1.63-1.63-2.52-3.79-2.52-6.09s.89-4.43,2.5-6.05c1.62-1.64,3.79-2.54,6.1-2.54s4.46.89,6.08,2.52l13.25,13.25.03.04c.08.09.15.18.24.27.07.07.13.13.21.2l29.83,29.84.1.1h0s.02.02.03.03c2.36,2.29,5.46,3.55,8.75,3.55s6.5-1.31,8.87-3.68c4.85-4.84,4.89-12.77.08-17.67,0,0,0,0,0,0h0s-.1-.1-.1-.1l-29.83-29.83-.04-.04-.08-.08c-.06-.06-.12-.12-.18-.17l-13.4-13.41c-1.63-1.63-2.52-3.79-2.52-6.08s.91-4.49,2.56-6.12c1.62-1.6,3.76-2.48,6.04-2.48,2.3,0,4.46.89,6.08,2.52l13.25,13.24h0c.04.06.09.11.13.17l.05.06.06.06c.06.06.12.12.18.17l29.89,29.9.07.07.11.1c2.35,2.24,5.42,3.47,8.66,3.47,3.64,0,7.11-1.59,9.51-4.36,4.27-4.94,3.88-12.55-.89-17.32l-29.58-29.58-.03-.03h0s-.04-.04-.04-.04l-19.67-19.67.02-.03-1.39-1.4-7.93-7.93c-2.12-2.12-4.93-3.28-7.93-3.28h-67.98l-.59.59-16.85,16.86c-5.62,5.62-13.09,8.71-21.03,8.71s-15.04-2.95-20.61-8.29l-.42-.41-.48-.5c-5.33-5.54-8.26-12.84-8.26-20.56s3.1-15.42,8.72-21.04l14.26-14.26,3.41-3.41h-39.79c-2.3,0-4.54.93-6.15,2.56l-13.01,13c-3.61,3.61-8.41,5.6-13.52,5.6H43.59c-1.24,0-2.25-1.01-2.25-2.25v-12.66c0-1.24,1.01-2.25,2.25-2.25h70.61c3.2,0,6.21-1.25,8.48-3.51l12.05-12.05c3.61-3.61,8.41-5.6,13.52-5.6h181.53M119.48,184.48c3.2,0,6.25-1.2,8.58-3.39l.02-.02c.09-.09.18-.17.28-.27l29.83-29.83c.08-.08.15-.15.22-.23l.16-.17.02-.02.04-.04.04-.04h0s.48-.48.48-.48v-.09c1.76-2.22,2.72-4.97,2.72-7.82,0-3.36-1.31-6.51-3.69-8.87-2.37-2.37-5.52-3.68-8.88-3.68s-6.51,1.3-8.88,3.68l-29.83,29.83c-4.9,4.9-4.9,12.86,0,17.76,2.38,2.37,5.53,3.68,8.88,3.68M140.21,193.22c-4.69,4.98-4.59,12.65.25,17.49,2.38,2.38,5.53,3.69,8.88,3.69s6.37-1.25,8.74-3.55l.13-.13,29.94-29.94c.05-.05.1-.11.15-.16l.06-.07c2.23-2.34,3.46-5.41,3.46-8.66s-1.31-6.5-3.68-8.87c-2.37-2.37-5.52-3.68-8.88-3.68s-6.51,1.31-8.87,3.67l-.05.05-.04.04-29.86,29.85c-.09.09-.18.18-.26.27M169.77,239.97v.05l.59.59c2.37,2.37,5.52,3.68,8.87,3.68,3.06,0,5.97-1.1,8.26-3.1h.04l.48-.48.14-.14h0s29.85-29.86,29.85-29.86l.1-.1.03-.04c2.28-2.36,3.54-5.45,3.54-8.73s-1.31-6.51-3.68-8.89c-2.37-2.37-5.53-3.67-8.88-3.67s-6.45,1.28-8.82,3.62l-29.94,29.95c-2.38,2.37-3.69,5.52-3.69,8.88,0,3.07,1.09,5.96,3.1,8.25M208.97,274.12c3.44,0,6.83-1.41,9.29-3.87l29.63-29.63c2.37-2.37,3.68-5.52,3.68-8.87s-1.31-6.51-3.68-8.88c-2.37-2.37-5.52-3.68-8.88-3.68s-6.51,1.31-8.88,3.68l-29.88,29.88c-2.58,2.58-3.9,6.14-3.64,9.78.26,3.64,2.1,6.99,5.05,9.19,2.11,1.57,4.63,2.41,7.31,2.41M268.94,274.18c3.61,0,7.06-1.56,9.46-4.28,4.35-4.95,3.98-12.6-.83-17.41l-8.5-8.5-.59-.59h-1.69s-.59.61-.59.61l-.23.24-.14.3c-1.45,3.04-3.4,5.8-5.81,8.21l-7.43,7.44-1.41,1.41,1.41,1.41,7.48,7.48c2.37,2.37,5.52,3.68,8.87,3.68M329.78,39.34h-181.53c-5.6,0-10.97,2.23-14.93,6.19l-12.05,12.05c-1.87,1.87-4.41,2.93-7.06,2.93H43.59c-2.35,0-4.25,1.9-4.25,4.25v12.66c0,2.35,1.9,4.25,4.25,4.25h74.77c5.6,0,10.97-2.23,14.93-6.19l13.01-13c1.25-1.26,2.96-1.97,4.74-1.97h34.96l-14.26,14.26c-6.21,6.2-9.31,14.33-9.31,22.45s2.93,15.83,8.82,21.95c.01.01.01.02,0,.02,0,0,0,0-.02-.01-6.12-5.87-14.03-8.81-21.94-8.81s-16.24,3.1-22.43,9.29l-25.51,25.51h-57.77c-2.35,0-4.25,1.9-4.25,4.25v12.66c0,2.35,1.9,4.25,4.25,4.25h44.66c-1.77,9.87,1.17,20.41,8.8,28.03,5.73,5.73,13.1,8.8,20.6,9.22h.01c.41,7.53,3.48,14.93,9.24,20.69h.01c5.74,5.75,13.12,8.82,20.64,9.23h.01c.41,7.53,3.49,14.91,9.24,20.66,5.75,5.74,13.13,8.82,20.65,9.23h.01c.41,7.53,3.49,14.92,9.23,20.66h0c6.19,6.2,14.31,9.29,22.43,9.29s16.24-3.1,22.43-9.29l7.48-7.48,7.2,7.2c6.27,6.27,14.49,9.41,22.72,9.41s16.19-3.04,22.43-9.13c2.87-2.87,5.08-6.15,6.61-9.66,1.54-3.5,2.41-7.22,2.62-10.98,0-.01.01-.01.01-.01,7.52-.42,14.91-3.5,20.65-9.24,2.87-2.87,5.07-6.15,6.61-9.66,1.54-3.51,2.42-7.23,2.63-10.99h.01c7.51-.42,14.9-3.5,20.64-9.24,2.88-2.88,5.08-6.16,6.62-9.68,1.54-3.51,2.42-7.23,2.62-10.99,0-.01.01-.01.01-.01,7.5-.43,14.88-3.5,20.61-9.23,2.74-3.14,4.8-6.71,6.16-10.51,1.36-3.79,2.04-7.8,2.04-11.81,0-1.9-.15-3.82-.47-5.7,0,0,0,0,0,0h44.85c2.35,0,4.25-1.91,4.25-4.26v-12.64c0-2.35-1.9-4.25-4.25-4.25h-56.9s-7.73-7.75-7.73-7.75h0s-49.57-49.58-49.57-49.58c-3.96-3.96-9.33-6.18-14.93-6.18h-71.04c-5.58,0-10.94,2.22-14.89,6.17l-17.44,17.44c-2.07,2.06-4.78,3.1-7.49,3.1s-5.42-1.04-7.49-3.1c-4.14-4.14-4.14-10.85,0-14.98l27.34-27.36c1.56-1.56,3.67-2.43,5.87-2.43h107.52c1.88,0,3.68.75,5,2.07l12.87,12.87c3.98,3.98,9.38,6.22,15.01,6.22h73.85c2.35,0,4.25-1.91,4.25-4.26v-12.64c0-2.35-1.9-4.25-4.25-4.25h-73.88s-14.93-14.95-14.93-14.95c-3.98-3.98-9.38-6.22-15.01-6.22h0ZM194.21,128.98c8.12,0,16.24-3.1,22.45-9.29l16.85-16.86h67.16c2.44,0,4.78.97,6.51,2.7l7.93,7.93s-.02.02-.03.02l21.07,21.07s.05.05.08.08l29.58,29.58c3.95,3.95,4.44,10.38.79,14.6-2.12,2.45-5.06,3.67-8,3.67-2.62,0-5.25-.97-7.28-2.92-.05-.05-.1-.1-.15-.15l-29.94-29.95s-.08-.07-.12-.11c-.06-.07-.11-.14-.17-.21l-13.32-13.31c-2.07-2.07-4.78-3.1-7.49-3.1-2.69,0-5.39,1.02-7.45,3.06-2.1,2.07-3.15,4.8-3.15,7.54s1.04,5.42,3.11,7.49l13.47,13.48s.07.06.11.1c.04.04.08.08.12.12l29.83,29.83s.07.07.1.1c4.05,4.13,4.03,10.76-.07,14.85-2.06,2.06-4.76,3.09-7.46,3.09s-5.31-.99-7.35-2.98c-.04-.04-.07-.08-.11-.11l-29.88-29.89c-.06-.05-.11-.1-.16-.15-.09-.09-.16-.19-.25-.28l-13.27-13.27c-2.07-2.07-4.78-3.1-7.5-3.1s-5.45,1.04-7.52,3.14c-2.05,2.06-3.08,4.76-3.08,7.46s1.04,5.43,3.11,7.5l13.55,13.55s.09.07.13.11l29.9,29.91c2.18,2.18,3.17,4.82,3.17,7.4,0,2.78-1.14,5.5-3.17,7.52-2.06,2.06-4.76,3.09-7.46,3.09s-5.33-1-7.38-3.01c-.03-.02-.06-.05-.08-.08l-28.67-28.67-1.29-1.21c-5.74-5.74-13.12-8.81-20.64-9.22h0c-.4-7.54-3.48-14.93-9.23-20.68-5.73-5.73-13.08-8.8-20.58-9.23h-.01c-.4-7.55-3.49-14.97-9.24-20.72-5.76-5.76-13.19-8.85-20.75-9.24,0,0-.01,0-.01-.01-.41-7.28-3.34-14.43-8.75-20.07,0,0,0-.01,0-.01,0,0,0,0,0,0,6.14,5.9,14.07,8.85,21.99,8.85h0ZM119.48,182.48c-2.7,0-5.4-1.03-7.47-3.09-4.12-4.12-4.12-10.81,0-14.93l29.83-29.83c2.07-2.06,4.77-3.09,7.47-3.09s5.4,1.03,7.46,3.09c2.07,2.06,3.1,4.76,3.1,7.46,0,2.52-.89,5.02-2.66,7.02l-.02.02s0,.01-.02.02c0,0-.02.01-.02.02-.13.13-.25.26-.38.39l-29.83,29.83c-.08.08-.15.15-.23.22l-.02.02c-2.03,1.9-4.62,2.85-7.21,2.85h0ZM149.34,212.39c-2.7,0-5.4-1.03-7.47-3.1-4.05-4.05-4.12-10.59-.19-14.73.06-.07.12-.13.19-.2l29.86-29.85s.06-.06.09-.09c2.06-2.06,4.76-3.09,7.46-3.09s5.4,1.03,7.46,3.09c2.06,2.06,3.09,4.76,3.09,7.46s-.97,5.25-2.91,7.28c-.06.06-.12.13-.18.19l-29.95,29.94-.13.13c-2.04,1.98-4.69,2.97-7.33,2.97h0ZM179.23,242.28c-2.7,0-5.4-1.03-7.46-3.09h0c-4.13-4.13-4.13-10.81,0-14.93l29.94-29.95c2.05-2.03,4.73-3.04,7.41-3.04s5.41,1.03,7.47,3.09c2.06,2.06,3.09,4.77,3.09,7.47s-1,5.31-3,7.36c-.03.03-.06.06-.09.1l-29.89,29.89h-.01s-.07.07-.09.1c-2.05,2-4.71,3-7.37,3h0ZM208.97,272.12c-2.15,0-4.29-.65-6.11-2.01-5.28-3.95-5.67-11.48-1.19-15.96l29.88-29.88c2.06-2.06,4.76-3.09,7.46-3.09s5.4,1.03,7.47,3.09c2.06,2.06,3.09,4.76,3.09,7.47s-1.03,5.4-3.09,7.46l-29.63,29.63c-2.14,2.14-5.02,3.29-7.88,3.29h0ZM268.94,272.18c-2.7,0-5.4-1.03-7.46-3.09l-7.48-7.48h0s7.43-7.44,7.43-7.44c2.63-2.63,4.69-5.59,6.2-8.76.01-.01.02-.01.02-.01l8.5,8.5c3.98,3.98,4.45,10.45.74,14.68-2.11,2.4-5.03,3.6-7.95,3.6h0Z"/>
    </g>
  </g>
  <line class="cls-5" x1="216.34" y1="197.25" x2="216.39" y2="197.3"/>
  <g>
    <g>
      <path class="cls-4" d="M66.92,440.9c-7.46,0-13.43-2.13-17.75-6.33-4.31-4.19-6.5-10.44-6.5-18.58v-40.69c0-8.22,2.31-14.51,6.87-18.7,4.58-4.21,10.74-6.34,18.3-6.34s13.09,2.11,17.5,6.27c4.39,4.15,6.62,10.59,6.62,19.16v.39c0,.75-.61,1.36-1.36,1.36h-11.38c-.75,0-1.36-.61-1.36-1.36v-.26c0-4.33-.94-7.61-2.79-9.75-1.89-2.18-4.46-3.29-7.63-3.29-3.75,0-6.52,1.34-8.23,3.99-1.63,2.51-2.45,6.26-2.45,11.14v36.25c0,9.43,3.59,14.22,10.68,14.22,3.17,0,5.74-1.13,7.63-3.36,1.85-2.18,2.79-5.4,2.79-9.54,0-.75.61-1.36,1.36-1.36h11.25c.75,0,1.36.61,1.36,1.36v.13c0,8.39-2.33,14.77-6.94,18.95-4.63,4.21-10.67,6.35-17.97,6.35Z"/>
      <path class="cls-1" d="M67.84,351.26c7.04,0,12.54,1.96,16.82,6,4.19,3.95,6.31,10.15,6.31,18.43v.39c0,.2-.16.36-.36.36h-11.38c-.2,0-.36-.16-.36-.36v-.26c0-4.58-1.02-8.08-3.04-10.4-2.09-2.41-4.91-3.63-8.38-3.63-4.11,0-7.16,1.5-9.07,4.44-1.76,2.71-2.61,6.54-2.61,11.69v36.25c0,12.58,6.35,15.22,11.68,15.22,3.48,0,6.3-1.25,8.4-3.72,2.01-2.37,3.03-5.8,3.03-10.19,0-.2.16-.36.36-.36h11.25c.2,0,.36.16.36.36v.13c0,8.1-2.22,14.23-6.61,18.21-4.44,4.04-10.26,6.09-17.3,6.09s-12.93-2.03-17.06-6.04c-4.11-3.99-6.2-10-6.2-17.87v-40.69c0-7.93,2.2-13.97,6.55-17.96,4.39-4.04,10.32-6.08,17.62-6.08M67.84,349.26c-7.85,0-14.18,2.2-18.97,6.61-4.8,4.4-7.2,10.88-7.2,19.43v40.69c0,8.46,2.27,14.9,6.8,19.3,4.54,4.41,10.69,6.61,18.45,6.61s13.8-2.2,18.64-6.61c4.84-4.4,7.26-10.97,7.26-19.69v-.13c0-1.3-1.06-2.36-2.36-2.36h-11.25c-1.3,0-2.36,1.06-2.36,2.36,0,3.92-.85,6.89-2.55,8.9-1.7,2.01-3.99,3.01-6.87,3.01-6.46,0-9.68-4.41-9.68-13.22v-36.25c0-4.71.76-8.24,2.29-10.6,1.53-2.35,3.99-3.53,7.39-3.53,2.88,0,5.17.98,6.87,2.94,1.7,1.96,2.55,4.99,2.55,9.09v.26c0,1.3,1.06,2.36,2.36,2.36h11.38c1.3,0,2.36-1.06,2.36-2.36v-.39c0-8.9-2.31-15.53-6.94-19.89s-10.69-6.54-18.19-6.54h0Z"/>
    </g>
    <g>
      <path class="cls-4" d="M128.17,440.9c-7.46,0-13.43-2.13-17.76-6.33-4.31-4.19-6.5-10.44-6.5-18.58v-40.69c0-8.22,2.31-14.51,6.87-18.7,4.58-4.21,10.74-6.34,18.3-6.34s13.19,2.13,17.56,6.33c4.36,4.19,6.56,10.48,6.56,18.71v40.69c0,8.04-2.33,14.27-6.94,18.5-4.62,4.25-10.71,6.41-18.1,6.41ZM128.69,362.79c-3.75,0-6.52,1.34-8.23,3.99-1.63,2.51-2.45,6.26-2.45,11.14v36.25c0,9.43,3.59,14.22,10.68,14.22,3.39,0,6.02-1.31,7.82-3.9,1.73-2.47,2.6-5.94,2.6-10.32v-36.25c0-4.8-.85-8.53-2.52-11.08-1.76-2.69-4.42-4.05-7.9-4.05Z"/>
      <path class="cls-1" d="M129.08,351.26c7.02,0,12.69,2.04,16.87,6.05,4.15,3.99,6.26,10.05,6.26,17.99v40.69c0,7.75-2.23,13.73-6.62,17.76-4.43,4.08-10.3,6.15-17.42,6.15s-12.93-2.03-17.06-6.04c-4.11-3.99-6.2-10-6.2-17.87v-40.69c0-7.93,2.2-13.97,6.55-17.96,4.39-4.04,10.32-6.08,17.62-6.08M128.69,429.38c3.73,0,6.64-1.46,8.64-4.32,1.85-2.64,2.78-6.31,2.78-10.89v-36.25c0-5.07-.88-8.87-2.68-11.63-1.93-2.95-4.95-4.5-8.74-4.5-4.11,0-7.16,1.5-9.07,4.44-1.76,2.71-2.61,6.54-2.61,11.69v36.25c0,12.58,6.35,15.22,11.68,15.22M129.08,349.26c-7.85,0-14.18,2.2-18.97,6.61-4.8,4.4-7.2,10.88-7.2,19.43v40.69c0,8.46,2.27,14.9,6.8,19.3,4.54,4.41,10.69,6.61,18.45,6.61s13.94-2.22,18.78-6.67c4.84-4.45,7.26-10.86,7.26-19.23v-40.69c0-8.55-2.29-15.03-6.87-19.43-4.58-4.41-10.67-6.61-18.25-6.61h0ZM128.69,427.38c-6.46,0-9.68-4.41-9.68-13.22v-36.25c0-4.71.76-8.24,2.29-10.6,1.53-2.35,3.99-3.53,7.39-3.53,3.14,0,5.5,1.2,7.07,3.6,1.57,2.4,2.36,5.91,2.36,10.53v36.25c0,4.19-.81,7.44-2.42,9.75-1.61,2.31-3.95,3.47-7,3.47h0Z"/>
    </g>
    <g>
      <path class="cls-4" d="M201.23,439.86c-.56,0-1.06-.34-1.26-.86l-13.71-35.03c-.52-1.32-1.7-2.14-3.1-2.14-1.66,0-3.38,1.26-3.38,3.36v33.31c0,.75-.61,1.36-1.36,1.36h-11.38c-.75,0-1.36-.61-1.36-1.36v-85.58c0-.75.61-1.36,1.36-1.36h12.11c.56,0,1.07.35,1.27.88l13.71,36.55c.5,1.34,1.7,2.18,3.12,2.18,1.66,0,3.38-1.26,3.38-3.36v-34.9c0-.75.61-1.36,1.36-1.36h11.38c.75,0,1.36.61,1.36,1.36v85.58c0,.75-.61,1.36-1.36,1.36h-12.13Z"/>
      <path class="cls-1" d="M213.35,352.57c.2,0,.36.16.36.36v85.57c0,.2-.16.36-.36.36h-12.13c-.15,0-.28-.09-.33-.23l-13.71-35.03c-.67-1.71-2.21-2.77-4.03-2.77-1.11,0-2.17.4-2.98,1.13-.91.82-1.41,1.96-1.41,3.23v33.31c0,.2-.16.36-.36.36h-11.38c-.2,0-.36-.16-.36-.36v-85.57c0-.2.16-.36.36-.36h12.11c.15,0,.28.09.33.23l13.71,36.55c.65,1.75,2.21,2.83,4.05,2.83,2.46,0,4.38-1.92,4.38-4.36v-34.9c0-.2.16-.36.36-.36h11.38M213.35,350.57h-11.38c-1.3,0-2.36,1.05-2.36,2.36v34.9c0,1.5-1.19,2.36-2.38,2.36-.89,0-1.78-.48-2.18-1.53l-13.71-36.55c-.34-.92-1.22-1.53-2.21-1.53h-12.11c-1.3,0-2.36,1.05-2.36,2.36v85.57c0,1.3,1.06,2.36,2.36,2.36h11.38c1.3,0,2.36-1.06,2.36-2.36v-33.31c0-1.5,1.19-2.36,2.38-2.36.88,0,1.76.47,2.17,1.5l13.71,35.03c.35.9,1.22,1.5,2.19,1.5h12.13c1.3,0,2.36-1.06,2.36-2.36v-85.57c0-1.3-1.06-2.36-2.36-2.36h0Z"/>
    </g>
    <g>
      <path class="cls-4" d="M239.8,439.86c-.75,0-1.36-.61-1.36-1.36v-71.05c0-1.85-1.51-3.36-3.36-3.36h-10.99c-.75,0-1.36-.61-1.36-1.36v-9.81c0-.75.61-1.36,1.36-1.36h42.53c.75,0,1.36.61,1.36,1.36v9.81c0,.75-.61,1.36-1.36,1.36h-10.86c-1.85,0-3.36,1.51-3.36,3.36v71.05c0,.75-.61,1.36-1.36,1.36h-11.25Z"/>
      <path class="cls-1" d="M266.62,352.57c.2,0,.36.16.36.36v9.81c0,.2-.16.36-.36.36h-10.86c-2.4,0-4.36,1.95-4.36,4.36v71.05c0,.2-.16.36-.36.36h-11.25c-.2,0-.36-.16-.36-.36v-71.05c0-2.4-1.95-4.36-4.36-4.36h-10.99c-.2,0-.36-.16-.36-.36v-9.81c0-.2.16-.36.36-.36h42.53M266.62,350.57h-42.53c-1.3,0-2.36,1.05-2.36,2.36v9.81c0,1.3,1.06,2.36,2.36,2.36h10.99c1.3,0,2.36,1.06,2.36,2.36v71.05c0,1.3,1.06,2.36,2.36,2.36h11.25c1.3,0,2.36-1.06,2.36-2.36v-71.05c0-1.3,1.06-2.36,2.36-2.36h10.86c1.3,0,2.36-1.05,2.36-2.36v-9.81c0-1.3-1.06-2.36-2.36-2.36h0Z"/>
    </g>
    <g>
      <path class="cls-4" d="M311.72,439.86c-.64,0-1.2-.45-1.33-1.08l-2.88-13.78c-.32-1.55-1.7-2.67-3.29-2.67h-17.24c-1.58,0-2.96,1.12-3.29,2.67l-2.88,13.79c-.13.62-.69,1.08-1.33,1.08h-11.8c-.42,0-.81-.19-1.07-.52-.26-.33-.35-.76-.24-1.17l21.95-85.57c.15-.6.69-1.02,1.31-1.02h12.04c.62,0,1.16.42,1.31,1.02l21.83,85.57c.1.41.02.83-.24,1.17s-.65.52-1.07.52h-11.8ZM295.67,380.55c-1.63,0-2.96,1.08-3.29,2.67l-4.69,22.67c-.21.99.04,2.01.68,2.8s1.59,1.24,2.6,1.24h9.39c1.01,0,1.96-.45,2.6-1.24s.89-1.81.68-2.8l-4.69-22.67c-.33-1.6-1.65-2.67-3.29-2.67Z"/>
      <path class="cls-1" d="M301.69,352.57c.16,0,.31.11.35.27l21.83,85.58c.04.14-.02.24-.06.31-.05.06-.14.14-.28.14h-11.8c-.17,0-.31-.12-.35-.28l-2.88-13.78c-.42-2.01-2.21-3.47-4.26-3.47h-17.24c-2.05,0-3.84,1.46-4.26,3.47l-2.88,13.78c-.03.16-.18.28-.35.28h-11.8c-.14,0-.23-.08-.28-.14-.05-.06-.1-.17-.06-.31l21.95-85.58c.04-.16.18-.27.35-.27h12.04M290.98,410.93h9.39c1.32,0,2.55-.59,3.38-1.61.83-1.02,1.15-2.35.89-3.63l-4.7-22.67c-.42-2.04-2.18-3.47-4.27-3.47s-3.84,1.43-4.27,3.47l-4.7,22.67c-.27,1.29.06,2.61.89,3.63.83,1.02,2.06,1.61,3.38,1.61M301.69,350.57h-12.04c-1.08,0-2.02.73-2.28,1.77l-21.95,85.58c-.38,1.49.74,2.94,2.28,2.94h11.8c1.12,0,2.08-.78,2.31-1.87l2.88-13.78c.23-1.09,1.19-1.87,2.31-1.87h17.24c1.12,0,2.08.78,2.31,1.87l2.88,13.78c.23,1.09,1.19,1.87,2.31,1.87h11.8c1.54,0,2.66-1.45,2.28-2.94l-21.83-85.57c-.27-1.04-1.21-1.77-2.28-1.77h0ZM290.98,408.93c-1.49,0-2.61-1.37-2.31-2.83l4.7-22.67c.26-1.25,1.28-1.88,2.31-1.88s2.05.63,2.31,1.88l4.7,22.67c.3,1.46-.81,2.83-2.31,2.83h-9.39Z"/>
    </g>
    <g>
      <path class="cls-4" d="M356.79,440.9c-7.46,0-13.43-2.13-17.75-6.33-4.31-4.19-6.5-10.44-6.5-18.58v-40.69c0-8.22,2.31-14.51,6.87-18.7,4.58-4.21,10.74-6.34,18.3-6.34s13.09,2.11,17.5,6.27c4.39,4.15,6.62,10.59,6.62,19.16v.39c0,.75-.61,1.36-1.36,1.36h-11.38c-.75,0-1.36-.61-1.36-1.36v-.26c0-4.33-.94-7.61-2.8-9.75-1.89-2.18-4.46-3.29-7.63-3.29-3.75,0-6.52,1.34-8.23,3.99-1.63,2.51-2.45,6.26-2.45,11.14v36.25c0,9.43,3.59,14.22,10.68,14.22,3.17,0,5.74-1.13,7.63-3.36,1.85-2.19,2.79-5.4,2.79-9.54,0-.75.61-1.36,1.36-1.36h11.25c.75,0,1.36.61,1.36,1.36v.13c0,8.39-2.33,14.77-6.94,18.95-4.63,4.21-10.67,6.35-17.97,6.35Z"/>
      <path class="cls-1" d="M357.7,351.26c7.04,0,12.54,1.96,16.82,6,4.19,3.95,6.31,10.15,6.31,18.43v.39c0,.2-.16.36-.36.36h-11.38c-.2,0-.36-.16-.36-.36v-.26c0-4.58-1.02-8.08-3.04-10.4-2.09-2.41-4.91-3.63-8.38-3.63-4.11,0-7.16,1.5-9.07,4.44-1.76,2.71-2.61,6.54-2.61,11.69v36.25c0,12.58,6.35,15.22,11.68,15.22,3.48,0,6.3-1.25,8.4-3.72,2.01-2.37,3.03-5.8,3.03-10.19,0-.2.16-.36.36-.36h11.25c.2,0,.36.16.36.36v.13c0,8.1-2.22,14.23-6.61,18.21-4.44,4.04-10.26,6.09-17.3,6.09s-12.93-2.03-17.06-6.04c-4.11-3.99-6.2-10-6.2-17.87v-40.69c0-7.93,2.2-13.97,6.55-17.96,4.39-4.04,10.32-6.08,17.62-6.08M357.7,349.26c-7.85,0-14.18,2.2-18.97,6.61-4.8,4.4-7.2,10.88-7.2,19.43v40.69c0,8.46,2.27,14.9,6.8,19.3,4.54,4.41,10.69,6.61,18.45,6.61s13.8-2.2,18.64-6.61c4.84-4.4,7.26-10.97,7.26-19.69v-.13c0-1.3-1.06-2.36-2.36-2.36h-11.25c-1.3,0-2.36,1.06-2.36,2.36,0,3.92-.85,6.89-2.55,8.9-1.7,2.01-3.99,3.01-6.87,3.01-6.46,0-9.68-4.41-9.68-13.22v-36.25c0-4.71.76-8.24,2.29-10.6,1.53-2.35,3.99-3.53,7.39-3.53,2.88,0,5.17.98,6.87,2.94,1.7,1.96,2.55,4.99,2.55,9.09v.26c0,1.3,1.06,2.36,2.36,2.36h11.38c1.3,0,2.36-1.06,2.36-2.36v-.39c0-8.9-2.31-15.53-6.94-19.89-4.62-4.36-10.69-6.54-18.19-6.54h0Z"/>
    </g>
    <g>
      <path class="cls-4" d="M406.39,439.86c-.75,0-1.36-.61-1.36-1.36v-71.05c0-1.85-1.51-3.36-3.36-3.36h-10.99c-.75,0-1.36-.61-1.36-1.36v-9.81c0-.75.61-1.36,1.36-1.36h42.53c.75,0,1.36.61,1.36,1.36v9.81c0,.75-.61,1.36-1.36,1.36h-10.86c-1.85,0-3.36,1.51-3.36,3.36v71.05c0,.75-.61,1.36-1.36,1.36h-11.25Z"/>
      <path class="cls-1" d="M433.21,352.57c.2,0,.36.16.36.36v9.81c0,.2-.16.36-.36.36h-10.86c-2.4,0-4.36,1.95-4.36,4.36v71.05c0,.2-.16.36-.36.36h-11.25c-.2,0-.36-.16-.36-.36v-71.05c0-2.4-1.95-4.36-4.36-4.36h-10.99c-.2,0-.36-.16-.36-.36v-9.81c0-.2.16-.36.36-.36h42.53M433.21,350.57h-42.53c-1.3,0-2.36,1.05-2.36,2.36v9.81c0,1.3,1.06,2.36,2.36,2.36h10.99c1.3,0,2.36,1.06,2.36,2.36v71.05c0,1.3,1.06,2.36,2.36,2.36h11.25c1.3,0,2.36-1.06,2.36-2.36v-71.05c0-1.3,1.06-2.36,2.36-2.36h10.86c1.3,0,2.36-1.05,2.36-2.36v-9.81c0-1.3-1.06-2.36-2.36-2.36h0Z"/>
    </g>
  </g>
  <g>
    <polygon class="cls-2" points="310.06 81.66 309.98 81.66 310.02 81.62 310.06 81.66"/>
    <polygon class="cls-1" points="310.02 81.62 309.98 81.66 310.06 81.66 310.02 81.62 310.02 81.62"/>
  </g>
</svg>