<?xml version="1.0" encoding="UTF-8"?>
<svg id="Capa_1" data-name="Capa 1" xmlns="http://www.w3.org/2000/svg" viewBox="0 0 477.2 477.2">
  <defs>
    <style>
      .cls-1 {
        fill: #000;
      }

      .cls-1, .cls-2, .cls-3 {
        stroke-width: 0px;
      }

      .cls-2 {
        fill: #5cae48;
      }

      .cls-3 {
        fill: #fdfd57;
      }
    </style>
  </defs>
  <rect class="cls-3" x="9.07" y="11.56" width="462.94" height="457.37"/>
  <g>
    <g>
      <path class="cls-2" d="M107.01,443.7c-.69,0-1.28-.5-1.41-1.18l-9.47-53.56c-.3-1.69-1.66-2.83-3.38-2.83s-3.07,1.13-3.37,2.82l-9.6,53.57c-.12.68-.71,1.18-1.4,1.18h-17.41c-.69,0-1.28-.5-1.4-1.18l-19.15-107.41c-.07-.42.04-.84.31-1.17.27-.32.67-.51,1.09-.51h15.31c.71,0,1.32.53,1.42,1.24l8.18,63.03c.23,1.76,1.63,2.99,3.4,2.99s3.18-1.23,3.4-3l7.94-63.01c.09-.71.7-1.25,1.42-1.25h20.13c.72,0,1.33.54,1.42,1.25l7.94,63.01c.22,1.77,1.62,3,3.4,3,1.77,0,3.17-1.23,3.4-2.99l8.18-63.03c.09-.71.7-1.24,1.42-1.24h14.98c.42,0,.82.19,1.09.51.27.33.39.75.31,1.17l-19.15,107.41c-.12.68-.71,1.18-1.41,1.18h-17.57Z"/>
      <path class="cls-1" d="M143.73,334.43c.16,0,.27.08.33.15.06.07.12.19.09.35l-19.15,107.41c-.04.2-.21.35-.42.35h-17.57c-.21,0-.38-.15-.42-.35l-9.47-53.56c-.38-2.15-2.17-3.66-4.36-3.66s-3.97,1.5-4.36,3.65l-9.6,53.57c-.04.2-.21.35-.42.35h-17.41c-.21,0-.38-.15-.42-.35l-19.15-107.41c-.03-.16.03-.28.09-.35.06-.07.16-.15.33-.15h15.31c.21,0,.4.16.42.37l8.18,63.03c.29,2.27,2.1,3.86,4.39,3.86s4.11-1.59,4.39-3.87l7.94-63.01c.03-.21.21-.37.42-.37h20.13c.21,0,.4.16.42.37l7.94,63.01c.29,2.28,2.09,3.87,4.39,3.87s4.09-1.59,4.39-3.86l8.18-63.02c.03-.21.21-.37.42-.37h14.98M143.73,332.43h-14.98c-1.22,0-2.25.91-2.41,2.11l-8.18,63.03c-.18,1.41-1.29,2.11-2.41,2.11s-2.23-.71-2.41-2.12l-7.94-63.01c-.15-1.21-1.18-2.12-2.41-2.12h-20.13c-1.22,0-2.26.91-2.41,2.12l-7.94,63.01c-.18,1.42-1.29,2.12-2.41,2.12s-2.22-.7-2.41-2.11l-8.18-63.03c-.16-1.21-1.19-2.11-2.41-2.11h-15.31c-1.51,0-2.65,1.37-2.39,2.85l19.15,107.41c.21,1.16,1.21,2,2.39,2h17.41c1.18,0,2.18-.84,2.39-2l9.6-53.57c.24-1.33,1.31-2,2.39-2s2.15.67,2.39,2l9.47,53.56c.21,1.16,1.21,2,2.39,2h17.57c1.18,0,2.18-.84,2.39-2l19.15-107.41c.27-1.49-.88-2.85-2.39-2.85h0Z"/>
    </g>
    <g>
      <path class="cls-2" d="M185.21,445c-9.34,0-16.83-2.67-22.25-7.93-5.41-5.25-8.16-13.09-8.16-23.28v-50.6c0-10.29,2.9-18.17,8.62-23.42,5.75-5.28,13.46-7.95,22.92-7.95s16.53,2.67,22,7.94c5.47,5.25,8.24,13.14,8.24,23.44v50.6c0,10.07-2.93,17.87-8.71,23.18-5.8,5.33-13.43,8.03-22.67,8.03ZM185.86,347.86c-4.57,0-7.94,1.63-10.03,4.85-2,3.08-3.01,7.7-3.01,13.72v45.07c0,11.57,4.39,17.43,13.04,17.43,4.13,0,7.33-1.6,9.52-4.74,2.12-3.03,3.19-7.3,3.19-12.69v-45.07c0-5.92-1.04-10.51-3.09-13.65-2.14-3.27-5.38-4.93-9.62-4.93Z"/>
      <path class="cls-1" d="M186.35,332.8c8.86,0,16.03,2.58,21.31,7.66,5.26,5.06,7.93,12.7,7.93,22.72v50.6c0,9.78-2.82,17.33-8.39,22.44-5.61,5.16-13.01,7.77-21.99,7.77s-16.32-2.57-21.55-7.65c-5.21-5.06-7.85-12.65-7.85-22.56v-50.6c0-10,2.79-17.63,8.3-22.69,5.56-5.1,13.04-7.69,22.24-7.69M185.86,429.94c4.47,0,7.95-1.74,10.34-5.17,2.24-3.2,3.37-7.67,3.37-13.27v-45.07c0-6.21-1.07-10.85-3.26-14.19-2.34-3.57-5.85-5.38-10.46-5.38-4.93,0-8.59,1.78-10.87,5.3-2.13,3.29-3.17,7.96-3.17,14.27v45.07c0,15.24,7.64,18.43,14.04,18.43M186.35,330.8c-9.76,0-17.63,2.74-23.59,8.22-5.97,5.48-8.95,13.53-8.95,24.16v50.6c0,10.52,2.82,18.52,8.46,24,5.64,5.48,13.29,8.22,22.94,8.22s17.33-2.76,23.35-8.3c6.02-5.53,9.03-13.5,9.03-23.92v-50.6c0-10.63-2.85-18.69-8.54-24.16-5.69-5.48-13.26-8.22-22.7-8.22h0ZM185.86,427.94c-8.03,0-12.04-5.48-12.04-16.43v-45.07c0-5.86.95-10.25,2.85-13.18,1.9-2.93,4.96-4.39,9.19-4.39,3.91,0,6.83,1.49,8.78,4.47,1.95,2.98,2.93,7.35,2.93,13.1v45.07c0,5.21-1,9.25-3.01,12.12-2,2.88-4.91,4.31-8.7,4.31h0Z"/>
    </g>
    <g>
      <path class="cls-2" d="M276.16,443.7c-.63,0-1.17-.4-1.36-1l-13.09-41.67c-.45-1.44-1.76-2.4-3.27-2.4h-5.39c-1.89,0-3.43,1.54-3.43,3.43v40.22c0,.79-.64,1.43-1.43,1.43h-15.16c-.79,0-1.43-.64-1.43-1.43v-107.41c0-.79.64-1.43,1.43-1.43h28.16c10.71,0,18.36,2.57,22.75,7.63,4.43,5.1,6.67,13.48,6.67,24.89,0,7.32-1.01,13.49-3.01,18.33-1.72,4.16-4.42,7.44-8.02,9.77-1.36.88-1.96,2.53-1.45,4.01l15.02,43.75c.15.44.08.91-.19,1.29-.27.38-.69.6-1.16.6h-15.65ZM253.05,349.33c-1.89,0-3.43,1.54-3.43,3.43v26.55c0,1.89,1.54,3.43,3.43,3.43h7.99c4.38,0,7.46-1.51,9.17-4.49,1.6-2.8,2.41-6.94,2.41-12.29s-.78-9.46-2.32-12.2c-1.65-2.93-4.76-4.41-9.25-4.41h-7.99Z"/>
      <path class="cls-1" d="M261.2,334.43c10.41,0,17.81,2.45,22,7.28,4.26,4.92,6.43,13.07,6.43,24.23,0,7.19-.99,13.23-2.94,17.95-1.64,3.96-4.21,7.1-7.64,9.32-1.75,1.13-2.51,3.26-1.86,5.17l15.02,43.75c.06.17,0,.31-.06.39-.06.08-.17.18-.35.18h-15.65c-.19,0-.35-.12-.41-.3l-13.09-41.67c-.58-1.85-2.28-3.1-4.22-3.1h-5.39c-2.44,0-4.43,1.99-4.43,4.43v40.22c0,.24-.19.43-.43.43h-15.16c-.24,0-.43-.19-.43-.43v-107.41c0-.24.19-.43.43-.43h28.16M253.05,383.73h7.99c4.76,0,8.14-1.68,10.04-5,1.71-2.99,2.54-7.18,2.54-12.79s-.8-9.76-2.45-12.7c-1.84-3.27-5.25-4.92-10.12-4.92h-7.99c-2.44,0-4.43,1.99-4.43,4.43v26.55c0,2.44,1.99,4.43,4.43,4.43M261.2,332.43h-28.16c-1.34,0-2.43,1.09-2.43,2.43v107.41c0,1.34,1.09,2.43,2.43,2.43h15.16c1.34,0,2.43-1.09,2.43-2.43v-40.22c0-1.34,1.09-2.43,2.43-2.43h5.39c1.06,0,2,.69,2.32,1.7l13.09,41.67c.32,1.01,1.26,1.7,2.32,1.7h15.65c1.67,0,2.84-1.64,2.3-3.21l-15.02-43.75c-.37-1.08.09-2.23,1.05-2.85,3.8-2.46,6.59-5.87,8.4-10.23,2.06-4.99,3.09-11.23,3.09-18.71,0-11.72-2.3-20.23-6.91-25.54-4.61-5.31-12.45-7.97-23.51-7.97h0ZM253.05,381.73c-1.34,0-2.43-1.09-2.43-2.43v-26.55c0-1.34,1.09-2.43,2.43-2.43h7.99c4.12,0,6.92,1.3,8.38,3.9,1.46,2.6,2.2,6.51,2.2,11.72s-.76,9.14-2.28,11.8c-1.52,2.66-4.28,3.99-8.3,3.99h-7.99Z"/>
    </g>
    <g>
      <path class="cls-2" d="M353.16,443.7c-.59,0-1.11-.36-1.33-.9l-14.49-36.86c-.52-1.32-1.77-2.17-3.19-2.17-1.3,0-2.47.72-3.06,1.88l-6.41,12.7c-.24.47-.37,1.01-.37,1.54v22.38c0,.79-.64,1.43-1.43,1.43h-15c-.79,0-1.43-.64-1.43-1.43v-107.41c0-.79.64-1.43,1.43-1.43h15c.79,0,1.43.64,1.43,1.43v39.2c0,.99.39,1.89,1.1,2.53.63.57,1.49.9,2.36.9,1.37,0,2.52-.75,3.09-2.02l18.63-41.2c.23-.51.74-.84,1.3-.84h14.5c.51,0,.95.25,1.22.68.27.43.29.94.06,1.39l-21.14,41.69c-.45.89-.49,1.93-.12,2.85l25.22,61.69c.18.45.13.93-.14,1.33-.27.4-.7.63-1.18.63h-16.05Z"/>
      <path class="cls-1" d="M365.29,334.43c.2,0,.31.11.36.2.06.09.11.24.02.42l-21.14,41.69c-.58,1.15-.64,2.49-.15,3.68l25.22,61.69c.07.17.02.31-.04.4s-.17.19-.35.19h-16.05c-.18,0-.33-.11-.4-.27l-14.49-36.86c-.67-1.71-2.29-2.81-4.12-2.81-1.68,0-3.19.93-3.95,2.43l-6.41,12.7c-.31.62-.48,1.3-.48,1.99v22.38c0,.24-.19.43-.43.43h-15c-.24,0-.43-.19-.43-.43v-107.41c0-.24.19-.43.43-.43h15c.24,0,.43.19.43.43v39.2c0,2.48,1.96,4.43,4.46,4.43,1.74,0,3.28-1,4-2.61l18.63-41.2c.07-.15.22-.25.39-.25h14.5M365.29,332.43h-14.5c-.95,0-1.82.56-2.21,1.43l-18.63,41.2c-.45.98-1.32,1.43-2.18,1.43-1.23,0-2.46-.9-2.46-2.43v-39.2c0-1.34-1.09-2.43-2.43-2.43h-15c-1.34,0-2.43,1.09-2.43,2.43v107.41c0,1.34,1.09,2.43,2.43,2.43h15c1.34,0,2.43-1.09,2.43-2.43v-22.38c0-.38.09-.75.26-1.09l6.41-12.7c.45-.9,1.31-1.33,2.16-1.33.93,0,1.86.52,2.26,1.54l14.49,36.86c.36.93,1.26,1.54,2.26,1.54h16.05c1.73,0,2.9-1.75,2.25-3.35l-25.22-61.69c-.27-.65-.24-1.39.08-2.02l21.14-41.69c.82-1.61-.35-3.52-2.16-3.52h0Z"/>
    </g>
    <g>
      <path class="cls-2" d="M407.16,445c-9.53,0-16.89-2.79-21.88-8.29-4.61-5.09-7.18-12.36-7.64-21.61-.02-.37.12-.73.38-1,.27-.29.66-.45,1.05-.45h14.1c.73,0,1.35.55,1.41,1.25.41,4.62,1.56,8.17,3.4,10.56,2.2,2.85,5.45,4.29,9.66,4.29s7.36-1.34,9.34-3.98c1.94-2.58,2.89-6.51,2.89-11.99,0-4.55-1.09-8.23-3.23-10.95-2.1-2.67-5.64-5.14-10.54-7.37l-7.65-3.42c-7.06-3.16-12.2-7.09-15.28-11.68-3.07-4.58-4.63-10.86-4.63-18.64,0-9.12,2.67-16.5,7.93-21.92,5.26-5.41,12.49-8.16,21.49-8.16s15.83,2.71,20.66,8.05c4.45,4.93,7.03,12,7.67,21.01.03.38-.1.74-.37,1.02-.27.29-.66.46-1.06.46h-13.52c-.74,0-1.36-.57-1.42-1.3-.31-4.15-1.23-7.42-2.74-9.72-1.87-2.84-4.97-4.27-9.21-4.27-5.43,0-11.9,2.4-11.9,13.85,0,4.11.97,7.46,2.89,9.96,1.89,2.46,5.06,4.67,9.42,6.57l7.32,3.25c7.6,3.38,13.18,7.64,16.58,12.66,3.4,5.01,5.12,11.83,5.12,20.27,0,10.1-2.64,17.97-7.86,23.39-5.2,5.41-12.73,8.15-22.38,8.15Z"/>
      <path class="cls-1" d="M407.97,332.64c8.71,0,15.22,2.53,19.91,7.72,4.3,4.76,6.79,11.63,7.41,20.41,0,.1-.03.19-.1.27-.05.05-.16.14-.33.14h-13.52c-.21,0-.4-.17-.42-.37-.32-4.39-1.27-7.72-2.91-10.2-2.06-3.14-5.45-4.72-10.05-4.72-5.88,0-12.9,2.58-12.9,14.85,0,4.34,1.04,7.89,3.1,10.57,2.02,2.63,5.23,4.88,9.8,6.87l7.32,3.25c7.43,3.3,12.86,7.44,16.16,12.31,3.28,4.85,4.95,11.48,4.95,19.7,0,9.83-2.55,17.47-7.58,22.69-5.01,5.21-12.29,7.85-21.66,7.85s-16.35-2.68-21.13-7.96c-4.45-4.92-6.94-11.98-7.38-20.99,0-.1.03-.19.1-.26.05-.05.16-.14.33-.14h14.1c.21,0,.4.15.42.34.44,4.88,1.62,8.5,3.61,11.08,2.4,3.11,5.91,4.69,10.45,4.69s7.96-1.47,10.14-4.38c2.08-2.77,3.09-6.88,3.09-12.59,0-4.78-1.16-8.67-3.44-11.57-2.23-2.83-5.8-5.34-10.92-7.67l-7.64-3.42c-6.89-3.08-11.89-6.9-14.86-11.33-2.96-4.42-4.46-10.5-4.46-18.08,0-8.85,2.57-15.99,7.65-21.22,5.06-5.21,12.05-7.85,20.78-7.85M407.97,330.64c-9.33,0-16.73,2.82-22.21,8.46-5.48,5.64-8.22,13.18-8.22,22.61,0,8.03,1.6,14.43,4.8,19.2,3.2,4.77,8.44,8.79,15.7,12.04l7.65,3.42c4.77,2.17,8.16,4.53,10.17,7.08s3.01,5.99,3.01,10.33c0,5.21-.89,9-2.69,11.39-1.79,2.39-4.64,3.58-8.54,3.58s-6.86-1.3-8.87-3.91c-1.74-2.25-2.8-5.6-3.2-10.04-.11-1.23-1.17-2.16-2.41-2.16h-14.1c-1.37,0-2.5,1.14-2.43,2.5.47,9.53,3.11,16.93,7.9,22.23,5.21,5.75,12.75,8.62,22.62,8.62s17.68-2.82,23.1-8.46c5.42-5.64,8.14-13.67,8.14-24.08,0-8.68-1.76-15.62-5.29-20.83-3.52-5.21-9.19-9.55-17-13.02l-7.32-3.25c-4.23-1.84-7.24-3.93-9.03-6.26-1.79-2.33-2.68-5.45-2.68-9.36,0-8.57,3.63-12.85,10.9-12.85,3.91,0,6.7,1.27,8.38,3.82,1.43,2.16,2.29,5.24,2.58,9.25.09,1.25,1.15,2.23,2.41,2.23h13.52c1.39,0,2.52-1.17,2.42-2.55-.66-9.28-3.3-16.49-7.93-21.61-5.05-5.59-12.18-8.38-21.4-8.38h0Z"/>
    </g>
  </g>
  <g>
    <path class="cls-2" d="M22.72,476.2c-5.8,0-11.26-2.26-15.36-6.36-.49-.49-.96-1-1.4-1.54-2.25-2.73-3.81-5.99-4.52-9.44-.07-.35-.14-.71-.19-1.07-.17-1.09-.25-2.2-.25-3.31V22.72C1,10.74,10.75,1,22.72,1h431.75c11.98,0,21.72,9.75,21.72,21.72v431.75c0,1.11-.08,2.22-.25,3.31-.05.36-.12.72-.19,1.07-.71,3.45-2.27,6.71-4.52,9.44-.44.54-.91,1.05-1.4,1.54-4.1,4.1-9.56,6.36-15.36,6.36H22.72ZM18.18,317.93c-.55,0-1,.45-1,1v135.55c0,3.06,2.49,5.54,5.54,5.54h431.75c3.06,0,5.54-2.49,5.54-5.54v-135.55c0-.55-.45-1-1-1H18.18ZM22.72,17.18c-3.06,0-5.54,2.49-5.54,5.54v278.03c0,.55.45,1,1,1h440.84c.55,0,1-.45,1-1V22.72c0-3.06-2.49-5.54-5.54-5.54H22.72Z"/>
    <path class="cls-1" d="M454.47,2c11.43,0,20.72,9.3,20.72,20.72v431.75c0,1.06-.08,2.12-.24,3.16-.05.34-.11.68-.18,1.02-.67,3.29-2.16,6.4-4.31,9-.42.51-.87,1-1.34,1.47-3.91,3.91-9.12,6.07-14.65,6.07H22.72c-5.54,0-10.74-2.16-14.65-6.07-.47-.47-.92-.96-1.34-1.47-2.15-2.6-3.64-5.71-4.31-9-.07-.34-.13-.68-.18-1.02-.16-1.04-.24-2.1-.24-3.16V22.72C2,11.3,11.3,2,22.72,2h431.75M18.18,302.75h440.84c1.1,0,2-.9,2-2V22.72c0-3.61-2.94-6.54-6.54-6.54H22.72c-3.61,0-6.54,2.94-6.54,6.54v278.02c0,1.1.9,2,2,2M22.72,461.02h431.75c3.61,0,6.54-2.94,6.54-6.54v-135.55c0-1.1-.9-2-2-2H18.18c-1.1,0-2,.9-2,2v135.55c0,3.61,2.94,6.54,6.54,6.54M454.47,0H22.72C10.17,0,0,10.17,0,22.72v431.75c0,1.18.09,2.33.26,3.46.06.38.12.75.2,1.12.76,3.7,2.41,7.07,4.73,9.88.46.56.95,1.1,1.47,1.61,4.11,4.11,9.79,6.66,16.07,6.66h431.75c6.27,0,11.96-2.54,16.07-6.66.51-.51,1-1.05,1.47-1.61,2.32-2.81,3.97-6.18,4.73-9.88.08-.37.14-.74.2-1.12.17-1.13.26-2.28.26-3.46V22.72c0-12.55-10.17-22.72-22.72-22.72h0ZM18.18,300.75V22.72c0-2.51,2.04-4.54,4.54-4.54h431.75c2.51,0,4.54,2.04,4.54,4.54v278.02H18.18ZM22.72,459.02c-2.51,0-4.54-2.04-4.54-4.54v-135.55h440.84v135.55c0,2.51-2.04,4.54-4.54,4.54H22.72Z"/>
  </g>
  <g>
    <path class="cls-2" d="M43.26,278.62c-1.58,0-2.87-1.29-2.87-2.87V93.05c0-1.58,1.29-2.87,2.87-2.87h56.43c2.69,0,4.87-2.18,4.87-4.87v-42.13c0-1.58,1.29-2.87,2.87-2.87h63.61c1.58,0,2.87,1.29,2.87,2.87v107.3c0,2.69,2.18,4.87,4.87,4.87h54.98c.55,0,1-.45,1-1v-79.35c0-18.79,15.3-34.34,34.1-34.66.08,0,.16-.01.23-.03h26.87c1.99,0,3.62,1.62,3.62,3.62v11.86c0,2-1.62,3.62-3.6,3.62-4.29,0-10.83-.02-16.45-.02s-8.79.01-10.23.03c-.07,0-.14,0-.2.02-8.39.12-15.19,6.98-15.19,15.4v33.9c0,25.23,19.77,45.71,45.01,46.6h14.37c3.78,0,7.39-1.61,9.91-4.43,2.52-2.81,3.72-6.6,3.3-10.38-.75-6.69-6.7-11.75-13.84-11.77-18.36-.05-32.2-14.97-32.2-34.69v-5.24c0-1.57,1.28-2.85,2.85-2.85h13.43c1.57,0,2.85,1.28,2.85,2.85v7.61c0,7.26,5.91,13.18,13.17,13.18h.33c8.33,0,16.28,3.17,22.37,8.92.19.18.44.27.69.27s.49-.09.69-.27c6.09-5.75,14.04-8.92,22.37-8.92s16.28,3.17,22.37,8.92c.19.18.44.27.69.27s.49-.09.69-.27c6.09-5.75,14.04-8.92,22.37-8.92,4.15,0,8.22.79,12.12,2.35.12.05.25.07.37.07.2,0,.39-.06.56-.17.27-.19.44-.5.44-.83V43.93c0-2,1.62-3.62,3.62-3.62h11.9c1.99,0,3.62,1.62,3.62,3.62v145.17c0,16.9-12.25,31.2-28.49,33.26-1.38.17-2.77.26-4.14.26h0c-4.88,0-9.62-1.09-14.09-3.23-.14-.07-.28-.1-.43-.1-.13,0-.26.02-.38.07-.26.11-.47.32-.56.59-4.66,12.89-16.98,21.55-30.65,21.55-8.33,0-16.28-3.17-22.37-8.92-.19-.18-.44-.27-.69-.27s-.49.09-.69.27c-6.09,5.75-14.04,8.92-22.37,8.92-.16-.01-.24-.02-.31-.02-4.55-.04-8.96-1.02-13.1-2.89-.13-.06-.27-.09-.41-.09s-.29.03-.42.09c-.26.12-.46.35-.54.63-3.98,13.78-16.78,23.41-31.11,23.41-.63,0-1.26-.02-1.9-.05-17.11-.98-30.51-15.59-30.51-33.27v-7.71c0-.55-.45-1-1-1h-54.98c-2.69,0-4.87,2.18-4.87,4.87v50.28c0,1.58-1.29,2.87-2.87,2.87H43.26ZM64.39,109.32c-2.69,0-4.87,2.18-4.87,4.87v140.43c0,2.69,2.18,4.87,4.87,4.87h85.14c2.9,0,5.25-2.36,5.25-5.25V70.98c0-8.09-1.46-11.54-4.87-11.54h-21.34c-2.69,0-4.87,2.18-4.87,4.87v42.13c0,1.58-1.29,2.87-2.87,2.87h-56.43ZM254.9,156.49c-.13,0-.27.03-.4.08-.37.16-.6.52-.6.92v72.21c0,7.07,5.26,13.1,11.98,13.74.44.04.87.06,1.3.06,7.32,0,13.28-5.96,13.28-13.28v-54.74s0-.09,0-.13v-3.22c0-.43-.28-.81-.68-.95-9.05-3.02-17.19-7.87-24.18-14.43-.19-.18-.44-.27-.68-.27ZM359.19,128.77c-1.49,0-2.99.24-4.47.72-5.4,1.75-9.03,6.88-9.03,12.77v66.61c0,7.44,6.05,13.49,13.49,13.49.44,0,.88-.02,1.32-.06,6.82-.65,12.17-6.78,12.17-13.96v-66.07c0-7.44-6.05-13.49-13.49-13.49ZM300.59,174.49c-.55,0-1,.45-1,1v32.85c0,7.18,5.35,13.31,12.17,13.96.27.03.53.03.8.04h.52c7.44,0,13.49-6.04,13.49-13.47v-35.76c0-.33-.16-.64-.44-.83-.17-.11-.36-.17-.56-.17-.12,0-.25.02-.37.07-3.86,1.53-7.87,2.3-11.92,2.3h-12.69ZM405.31,128.77c-.44,0-.88.02-1.33.06-6.82.65-12.16,6.79-12.16,13.96v47.2c0,7.44,6.05,13.49,13.49,13.49.44,0,.88-.02,1.32-.06,6.82-.65,12.17-6.79,12.17-13.97v-47.21c0-7.43-6.06-13.48-13.49-13.48ZM178.78,174.49c-2.69,0-4.87,2.18-4.87,4.87v17.24c0,2.69,2.18,4.87,4.87,4.87h54.98c.55,0,1-.45,1-1v-14.3s0-.09,0-.13v-10.55c0-.27-.1-.52-.29-.71s-.44-.29-.71-.29h-54.97Z"/>
    <path class="cls-1" d="M434.31,41.31c1.44,0,2.62,1.17,2.62,2.62v145.17c0,16.4-11.87,30.27-27.61,32.27-1.33.17-2.68.25-4.01.25-4.73,0-9.32-1.05-13.66-3.14-.27-.13-.57-.2-.87-.2-.26,0-.51.05-.76.15-.52.21-.93.64-1.12,1.17-4.52,12.49-16.46,20.89-29.71,20.89-8.08,0-15.78-3.07-21.68-8.65-.39-.36-.88-.55-1.37-.55s-.99.18-1.37.55c-5.9,5.58-13.6,8.65-21.68,8.65h-.01c-.1,0-.2-.01-.3-.02-4.41-.04-8.68-.99-12.69-2.8-.26-.12-.54-.18-.82-.18s-.57.06-.84.18c-.53.24-.92.7-1.08,1.26-3.86,13.36-16.26,22.69-30.15,22.69-.61,0-1.23-.02-1.84-.05-16.58-.94-29.57-15.12-29.57-32.27v-7.71c0-1.1-.9-2-2-2h-54.98c-3.24,0-5.87,2.63-5.87,5.87v50.28c0,1.03-.84,1.87-1.87,1.87H43.26c-1.03,0-1.87-.84-1.87-1.87V93.05c0-1.03.84-1.87,1.87-1.87h56.43c3.24,0,5.87-2.63,5.87-5.87v-42.13c0-1.03.84-1.87,1.87-1.87h63.61c1.03,0,1.87.84,1.87,1.87v107.3c0,3.24,2.63,5.87,5.87,5.87h54.98c1.1,0,2-.9,2-2v-79.35c0-8.89,3.44-17.28,9.69-23.62,6.23-6.33,14.55-9.89,23.43-10.04.11,0,.21-.01.31-.03h26.77c1.44,0,2.62,1.17,2.62,2.62v11.86c0,1.44-1.17,2.62-2.61,2.62-4.27,0-10.79-.02-16.41-.02s-8.83.01-10.29.03c-.1,0-.19.01-.29.03-8.9.17-16.09,7.46-16.09,16.4v33.9c0,25.78,20.2,46.69,45.98,47.6.02,0,.05,0,.07,0h14.33c4.06,0,7.94-1.74,10.65-4.77,2.71-3.03,4-7.09,3.55-11.16-.8-7.19-7.18-12.63-14.83-12.66-8.79-.03-16.78-3.52-22.49-9.83-5.62-6.21-8.71-14.68-8.71-23.86v-5.24c0-1.02.83-1.85,1.85-1.85h13.43c1.02,0,1.85.83,1.85,1.85v7.61c0,7.81,6.36,14.18,14.17,14.18h.33c8.08,0,15.78,3.07,21.68,8.65.39.36.88.55,1.37.55s.99-.18,1.37-.55c5.91-5.58,13.61-8.65,21.68-8.65s15.78,3.07,21.68,8.65c.39.36.88.55,1.37.55s.99-.18,1.37-.55c5.91-5.58,13.61-8.65,21.68-8.65,4.02,0,7.97.77,11.75,2.28.24.1.49.14.74.14.39,0,.79-.12,1.12-.34.55-.37.88-.99.88-1.66V43.93c0-1.44,1.17-2.62,2.62-2.62h11.9M64.39,260.48h85.14c3.45,0,6.25-2.8,6.25-6.25V70.98c0-6.2-.7-12.54-5.87-12.54h-21.34c-3.24,0-5.87,2.63-5.87,5.87v42.13c0,1.03-.84,1.87-1.87,1.87h-56.43c-3.24,0-5.87,2.63-5.87,5.87v140.43c0,3.24,2.63,5.87,5.87,5.87M405.31,204.49c.47,0,.95-.02,1.42-.07,7.33-.7,13.07-7.27,13.07-14.96v-47.21c0-7.98-6.51-14.48-14.49-14.48-.47,0-.95.02-1.42.07-7.33.7-13.07,7.27-13.07,14.96v47.2c0,7.99,6.5,14.49,14.49,14.49M359.19,223.37c.47,0,.95-.02,1.42-.07,7.33-.7,13.07-7.27,13.07-14.96v-66.07c0-7.99-6.5-14.49-14.49-14.49-1.59,0-3.2.26-4.77.77-5.81,1.88-9.72,7.4-9.72,13.72v66.61c0,7.99,6.5,14.49,14.49,14.49M267.18,244.5c7.87,0,14.28-6.4,14.28-14.28v-54.74c0-.06,0-.13,0-.19v-3.16c0-.86-.55-1.62-1.37-1.9-8.91-2.97-16.93-7.75-23.81-14.21-.38-.35-.87-.54-1.37-.54-.27,0-.54.05-.79.16-.73.32-1.21,1.04-1.21,1.84v72.21c0,7.58,5.66,14.05,12.88,14.74.46.04.93.07,1.4.07M313.08,223.35c7.99,0,14.49-6.49,14.49-14.47v-35.76c0-.66-.33-1.28-.88-1.65-.34-.23-.73-.35-1.12-.35-.25,0-.5.05-.74.14-3.74,1.48-7.63,2.23-11.55,2.23h-12.69c-1.1,0-2,.9-2,2v32.85c0,7.69,5.74,14.26,13.08,14.96.29.03.58.04.87.04h.17c.13,0,.25,0,.38,0M178.78,202.47h54.98c1.1,0,2-.9,2-2v-14.3c0-.06,0-.13,0-.19v-10.5c0-.53-.21-1.04-.58-1.41s-.88-.59-1.41-.59h-54.97c-3.24,0-5.87,2.63-5.87,5.87v17.24c0,3.24,2.63,5.87,5.87,5.87M434.31,39.31h-11.9c-2.55,0-4.62,2.07-4.62,4.62v67.14c-3.87-1.55-8.07-2.42-12.49-2.42-8.94,0-17.03,3.51-23.06,9.19-6.02-5.69-14.12-9.2-23.06-9.2s-17.04,3.51-23.06,9.2c-6.02-5.69-14.12-9.2-23.06-9.2h-.33c-6.72,0-12.17-5.46-12.17-12.18v-7.61c0-2.13-1.72-3.85-3.85-3.85h-13.43c-2.13,0-3.85,1.72-3.85,3.85v5.24c0,19.67,13.55,35.63,33.2,35.69,6.37.02,12.14,4.55,12.85,10.88.83,7.42-4.96,13.7-12.21,13.7h-14.33c-24.47-.87-44.05-20.93-44.05-45.6v-33.9c0-7.96,6.45-14.41,14.41-14.41v-.02c1.63-.02,5.64-.03,10.26-.03,5.61,0,12.13.01,16.4.02h0c2.55,0,4.6-2.07,4.6-4.62v-11.86c0-2.55-2.07-4.62-4.62-4.62h-27.12v.03c-19.43.33-35.08,16.15-35.08,35.66v79.35h-54.98c-2.14,0-3.87-1.73-3.87-3.87V43.18c0-2.14-1.73-3.87-3.87-3.87h-63.61c-2.14,0-3.87,1.73-3.87,3.87v42.13c0,2.14-1.73,3.87-3.87,3.87h-56.43c-2.14,0-3.87,1.73-3.87,3.87v182.69c0,2.14,1.73,3.87,3.87,3.87h127.78c2.14,0,3.87-1.73,3.87-3.87v-50.28c0-2.14,1.73-3.87,3.87-3.87h54.98v7.71c0,17.86,13.63,33.25,31.46,34.27.65.04,1.31.06,1.95.06,15.23,0,28.05-10.2,32.08-24.13,4.13,1.87,8.69,2.93,13.5,2.98.11,0,.22.02.33.02,8.94,0,17.04-3.51,23.06-9.2,6.02,5.69,14.12,9.2,23.06,9.2,14.55,0,26.91-9.27,31.59-22.21,4.4,2.11,9.31,3.33,14.52,3.33,1.4,0,2.82-.09,4.26-.27,16.96-2.15,29.36-17.16,29.36-34.26V43.93c0-2.55-2.07-4.62-4.62-4.62h0ZM64.39,258.48c-2.14,0-3.87-1.73-3.87-3.87V114.19c0-2.14,1.73-3.87,3.87-3.87h56.43c2.14,0,3.87-1.73,3.87-3.87v-42.13c0-2.14,1.73-3.87,3.87-3.87h21.34c2.14,0,3.87,1.73,3.87,10.54v183.25c0,2.35-1.9,4.25-4.25,4.25h-85.14ZM405.31,202.49c-6.9,0-12.49-5.59-12.49-12.49v-47.2c0-6.52,4.77-12.35,11.26-12.97.41-.04.82-.06,1.23-.06,6.9,0,12.49,5.59,12.49,12.48v47.21c0,6.52-4.77,12.35-11.26,12.97-.41.04-.82.06-1.23.06h0ZM359.19,221.37c-6.9,0-12.49-5.59-12.49-12.49h0v-66.61h0c0-5.3,3.29-10.19,8.33-11.82,1.41-.46,2.81-.67,4.16-.67,6.9,0,12.49,5.59,12.49,12.49h0v66.07c0,6.52-4.77,12.35-11.26,12.97-.41.04-.82.06-1.23.06h0ZM267.18,242.5c-.4,0-.8-.02-1.21-.06-6.38-.61-11.07-6.33-11.07-12.75v-72.21c6.95,6.52,15.3,11.56,24.55,14.65v3.35h0v54.74c0,6.78-5.5,12.28-12.28,12.28h0ZM313.08,221.35c-.11,0-.22,0-.32,0-.3,0-.6,0-.9-.04-6.5-.62-11.27-6.44-11.27-12.97v-32.85h12.69c4.35,0,8.48-.86,12.29-2.37v35.76c0,6.9-5.6,12.47-12.49,12.47h0ZM178.78,200.47c-2.14,0-3.87-1.73-3.87-3.87v-17.24c0-2.14,1.73-3.87,3.87-3.87h54.97v10.69s0,0,0,0v14.3h-54.98Z"/>
  </g>
</svg>