<?xml version="1.0" encoding="UTF-8"?>
<svg id="Capa_1" data-name="Capa 1" xmlns="http://www.w3.org/2000/svg" viewBox="0 0 477.2 477.2">
  <defs>
    <style>
      .cls-1 {
        fill: #000;
      }

      .cls-1, .cls-2, .cls-3, .cls-4 {
        stroke-width: 0px;
      }

      .cls-2, .cls-5 {
        fill: #5cae48;
      }

      .cls-5 {
        stroke: #000;
        stroke-linejoin: round;
        stroke-width: 2px;
      }

      .cls-3 {
        fill: #6088ee;
      }

      .cls-4 {
        fill: #fdfd57;
      }
    </style>
  </defs>
  <rect class="cls-3" x="7.13" y="9.92" width="462.94" height="457.37"/>
  <g>
    <path class="cls-2" d="M22.72,476.2c-5.8,0-11.26-2.26-15.36-6.36-.49-.49-.96-1.01-1.4-1.54-2.25-2.73-3.81-5.99-4.52-9.44-.07-.35-.14-.71-.19-1.07-.17-1.09-.25-2.2-.25-3.31V22.72C1,10.75,10.75,1,22.72,1h431.75c11.98,0,21.72,9.75,21.72,21.72v431.75c0,1.11-.08,2.22-.25,3.31-.05.36-.12.72-.19,1.07-.71,3.45-2.27,6.71-4.52,9.44-.44.53-.91,1.05-1.4,1.54-4.1,4.1-9.56,6.36-15.36,6.36H22.72ZM18.18,303.93c-.55,0-1,.45-1,1v149.55c0,3.06,2.49,5.54,5.54,5.54h431.75c3.06,0,5.54-2.49,5.54-5.54v-149.55c0-.55-.45-1-1-1H18.18ZM22.72,17.18c-3.06,0-5.54,2.49-5.54,5.54v264.03c0,.55.45,1,1,1h440.84c.55,0,1-.45,1-1V22.72c0-3.06-2.49-5.54-5.54-5.54H22.72Z"/>
    <path class="cls-1" d="M454.47,2c11.43,0,20.72,9.3,20.72,20.72v431.75c0,1.06-.08,2.12-.24,3.16-.05.34-.11.68-.18,1.02-.67,3.29-2.16,6.4-4.31,9-.42.51-.87,1-1.34,1.47-3.91,3.91-9.12,6.07-14.65,6.07H22.72c-5.54,0-10.74-2.16-14.65-6.07-.47-.47-.92-.96-1.34-1.47-2.15-2.6-3.64-5.71-4.31-9-.07-.34-.13-.68-.18-1.02-.16-1.04-.24-2.1-.24-3.16V22.72C2,11.3,11.3,2,22.72,2h431.75M18.18,288.75h440.84c1.1,0,2-.9,2-2V22.72c0-3.61-2.94-6.54-6.54-6.54H22.72c-3.61,0-6.54,2.94-6.54,6.54v264.02c0,1.1.9,2,2,2M22.72,461.02h431.75c3.61,0,6.54-2.94,6.54-6.54v-149.55c0-1.1-.9-2-2-2H18.18c-1.1,0-2,.9-2,2v149.55c0,3.61,2.94,6.54,6.54,6.54M454.47,0H22.72C10.17,0,0,10.17,0,22.72v431.75c0,1.18.09,2.33.26,3.46.06.38.12.75.2,1.12.76,3.7,2.41,7.07,4.73,9.88.46.56.95,1.1,1.47,1.61,4.11,4.11,9.79,6.66,16.07,6.66h431.75c6.27,0,11.96-2.54,16.07-6.66.51-.51,1-1.05,1.47-1.61,2.32-2.81,3.97-6.18,4.73-9.88.08-.37.14-.74.2-1.12.17-1.13.26-2.28.26-3.46V22.72C477.2,10.17,467.02,0,454.47,0h0ZM18.18,286.75V22.72c0-2.51,2.04-4.54,4.54-4.54h431.75c2.51,0,4.54,2.04,4.54,4.54v264.02H18.18ZM22.72,459.02c-2.51,0-4.54-2.04-4.54-4.54v-149.55h440.84v149.55c0,2.51-2.04,4.54-4.54,4.54H22.72Z"/>
  </g>
  <g>
    <g>
      <path class="cls-4" d="M103.19,444.7c-2.65,0-4.97-1.89-5.52-4.48l-3.5-16.75c-.35-1.68-1.85-2.89-3.56-2.89h-21.46c-1.71,0-3.21,1.22-3.56,2.89l-3.5,16.75c-.54,2.6-2.86,4.48-5.52,4.48h-13.31c-1.75,0-3.38-.79-4.45-2.18-1.08-1.39-1.44-3.16-1.01-4.85l29.5-114.99c.64-2.49,2.89-4.24,5.46-4.24h14.41c2.58,0,4.82,1.75,5.46,4.24l29.33,114.99c.43,1.7.07,3.47-1.01,4.85-1.08,1.38-2.7,2.18-4.45,2.18h-13.32ZM79.97,368.55c-1.37,0-3.12.76-3.56,2.9l-4.75,22.93c-.22,1.08.05,2.18.74,3.03.69.85,1.72,1.34,2.82,1.34h9.5c1.1,0,2.13-.49,2.82-1.34.69-.85.96-1.96.74-3.03l-4.75-22.93c-.44-2.14-2.2-2.9-3.56-2.9Z"/>
      <path class="cls-1" d="M87.18,319.44c2.12,0,3.97,1.44,4.49,3.49l29.33,114.99c.75,2.93-1.47,5.78-4.49,5.78h-13.32c-2.2,0-4.09-1.54-4.54-3.69l-3.5-16.75c-.45-2.15-2.34-3.69-4.54-3.69h-21.46c-2.2,0-4.09,1.54-4.54,3.69l-3.5,16.75c-.45,2.15-2.34,3.69-4.54,3.69h-13.31c-3.03,0-5.24-2.86-4.49-5.79l29.5-114.99c.53-2.05,2.37-3.48,4.49-3.48h14.41M75.22,399.76h9.5c2.94,0,5.14-2.7,4.54-5.58l-4.75-22.93c-.51-2.46-2.53-3.7-4.54-3.7s-4.03,1.23-4.54,3.7l-4.75,22.93c-.6,2.88,1.6,5.58,4.54,5.58M87.18,317.44h-14.41c-3.03,0-5.67,2.05-6.43,4.99l-29.5,114.99c-.51,2-.08,4.08,1.18,5.72s3.18,2.57,5.24,2.57h13.31c3.12,0,5.86-2.22,6.5-5.28l3.5-16.75c.25-1.22,1.34-2.1,2.58-2.1h21.46c1.24,0,2.33.88,2.58,2.1l3.5,16.75c.64,3.06,3.37,5.28,6.5,5.28h13.32c2.06,0,3.97-.94,5.24-2.56,1.27-1.63,1.7-3.71,1.19-5.71l-29.33-114.99c-.75-2.94-3.39-5-6.43-5h0ZM75.22,397.76c-.8,0-1.54-.35-2.04-.97-.5-.62-.7-1.42-.54-2.2l4.75-22.93c.32-1.55,1.54-2.1,2.58-2.1s2.26.55,2.58,2.1l4.75,22.93c.16.78-.03,1.58-.54,2.2-.5.62-1.25.97-2.04.97h-9.5Z"/>
    </g>
    <g>
      <path class="cls-4" d="M135.76,444.7c-3.11,0-5.64-2.53-5.64-5.64v-114.99c0-3.11,2.53-5.64,5.64-5.64h29.04c12.35,0,21.32,2.8,26.65,8.32,5.33,5.51,8.03,14.32,8.03,26.18,0,6.24-1.06,11.65-3.16,16.09-1.21,2.57-2.93,4.82-5.11,6.7-.79.68-1.21,1.63-1.21,2.67,0,1.09.5,2.13,1.35,2.84,2.48,2.07,4.34,4.6,5.53,7.51,1.96,4.78,2.96,11.15,2.96,18.93,0,12.81-2.69,22.28-8,28.14-5.33,5.89-14.43,8.88-27.03,8.88h-29.04ZM157.74,389.41c-2,0-3.64,1.63-3.64,3.64v26.2c0,2,1.63,3.64,3.64,3.64h4.55c5.17,0,8.72-1.23,10.55-3.66,1.9-2.51,2.86-6.94,2.86-13.17s-1.05-10.31-3.11-12.88c-2.01-2.5-5.48-3.77-10.29-3.77h-4.55ZM157.74,340.25c-2,0-3.64,1.63-3.64,3.64v20.8c0,2,1.63,3.64,3.64,3.64h4.73c4.84,0,8.22-1.07,10.05-3.17,1.87-2.14,2.82-5.77,2.82-10.78s-.94-8.96-2.81-11.04c-1.83-2.05-5.22-3.09-10.06-3.09h-4.73Z"/>
      <path class="cls-1" d="M164.81,319.44c12.13,0,20.77,2.67,25.93,8.01,5.16,5.35,7.74,13.84,7.74,25.49,0,6.12-1.02,11.34-3.06,15.67-1.16,2.45-2.78,4.57-4.86,6.37-2.16,1.86-2.03,5.21.16,7.04,2.36,1.97,4.11,4.35,5.24,7.12,1.92,4.68,2.88,10.87,2.88,18.55,0,12.61-2.58,21.76-7.74,27.47-5.16,5.7-13.93,8.55-26.29,8.55h-29.04c-2.56,0-4.64-2.08-4.64-4.64v-114.99c0-2.56,2.08-4.64,4.64-4.64h29.04M157.74,369.32h4.73c5.16,0,8.76-1.17,10.8-3.51,2.04-2.34,3.06-6.15,3.06-11.44s-1.02-9.42-3.06-11.7c-2.04-2.28-5.64-3.42-10.8-3.42h-4.73c-2.56,0-4.64,2.08-4.64,4.64v20.8c0,2.56,2.08,4.64,4.64,4.64M157.74,423.89h4.55c5.52,0,9.3-1.35,11.35-4.05,2.04-2.7,3.06-7.29,3.06-13.78s-1.11-10.75-3.33-13.51c-2.22-2.76-5.91-4.14-11.07-4.14h-4.55c-2.56,0-4.64,2.08-4.64,4.64v26.2c0,2.56,2.08,4.64,4.64,4.64M164.81,317.44h-29.04c-3.66,0-6.64,2.98-6.64,6.64v114.99c0,3.66,2.98,6.64,6.64,6.64h29.04c12.9,0,22.24-3.1,27.77-9.21,5.48-6.05,8.26-15.74,8.26-28.81,0-7.91-1.02-14.4-3.03-19.31-1.26-3.06-3.21-5.72-5.81-7.9-.62-.52-.99-1.28-.99-2.08,0-.75.3-1.43.86-1.91,2.29-1.97,4.09-4.34,5.37-7.03,2.16-4.57,3.25-10.13,3.25-16.52,0-12.13-2.79-21.17-8.31-26.88-5.53-5.72-14.74-8.62-27.37-8.62h0ZM157.74,367.32c-1.45,0-2.64-1.18-2.64-2.64v-20.8c0-1.45,1.18-2.64,2.64-2.64h4.73c4.54,0,7.68.93,9.31,2.76,1.69,1.89,2.55,5.38,2.55,10.37s-.86,8.17-2.57,10.12c-1.63,1.88-4.76,2.83-9.3,2.83h-4.73ZM157.74,421.89c-1.45,0-2.64-1.18-2.64-2.64v-26.2c0-1.45,1.18-2.64,2.64-2.64h4.55c4.5,0,7.7,1.14,9.52,3.39,1.92,2.39,2.89,6.51,2.89,12.25s-.89,10.24-2.66,12.57c-1.63,2.16-4.91,3.26-9.75,3.26h-4.55Z"/>
    </g>
    <g>
      <path class="cls-4" d="M247.29,446.14c-10.9,0-19.68-3.16-26.09-9.38-6.41-6.23-9.67-15.41-9.67-27.28v-56.01c0-12,3.44-21.25,10.23-27.48,6.76-6.21,15.77-9.36,26.79-9.36s19.35,3.15,25.81,9.37c6.48,6.23,9.76,15.47,9.76,27.46v56.01c0,11.77-3.47,20.92-10.32,27.21-6.82,6.27-15.74,9.45-26.52,9.45ZM248.01,338.63c-4.36,0-7.41,1.44-9.34,4.41-1.99,3.06-2.99,7.79-2.99,14.04v49.88c0,11.57,4.03,17.19,12.33,17.19,3.89,0,6.77-1.42,8.81-4.34,2.09-3,3.15-7.32,3.15-12.85v-49.88c0-6.14-1.04-10.83-3.08-13.95-1.98-3.03-4.89-4.5-8.89-4.5Z"/>
      <path class="cls-1" d="M248.56,317.64c10.44,0,18.82,3.03,25.12,9.09,6.3,6.06,9.46,14.98,9.46,26.74v56.01c0,11.53-3.33,20.35-10,26.47-6.66,6.13-15.28,9.19-25.84,9.19s-19.15-3.03-25.4-9.09c-6.24-6.06-9.36-14.92-9.36-26.57v-56.01c0-11.76,3.3-20.68,9.9-26.74,6.6-6.06,15.31-9.09,26.11-9.09M248.01,425.15c4.2,0,7.42-1.59,9.63-4.77,2.22-3.18,3.33-7.66,3.33-13.42v-49.88c0-6.36-1.08-11.2-3.24-14.5-2.16-3.3-5.4-4.95-9.72-4.95-4.68,0-8.07,1.62-10.17,4.86-2.1,3.24-3.15,8.1-3.15,14.59v49.88c0,12.13,4.44,18.19,13.33,18.19M248.56,315.64c-11.27,0-20.52,3.24-27.47,9.62-7,6.43-10.55,15.92-10.55,28.22v56.01c0,12.15,3.35,21.57,9.97,28,6.6,6.41,15.62,9.66,26.79,9.66s20.18-3.27,27.19-9.72c7.06-6.49,10.64-15.89,10.64-27.94v-56.01c0-12.27-3.39-21.76-10.07-28.18-6.66-6.41-15.58-9.65-26.51-9.65h0ZM248.01,423.15c-4.86,0-11.33-1.68-11.33-16.19v-49.88c0-6.06.95-10.6,2.83-13.5,1.72-2.66,4.5-3.95,8.5-3.95,3.64,0,6.27,1.32,8.05,4.04,1.94,2.95,2.92,7.46,2.92,13.4v49.88c0,5.32-1,9.45-2.97,12.27-1.84,2.64-4.45,3.92-7.99,3.92h0Z"/>
    </g>
    <g>
      <path class="cls-4" d="M331.4,446.14c-6.62,0-12.63-1.47-17.86-4.36-5.25-2.91-9.44-7.06-12.45-12.36-3.02-5.29-4.54-11.46-4.54-18.32v-87.03c0-3.11,2.53-5.64,5.64-5.64h12.88c3.11,0,5.64,2.53,5.64,5.64v86.49c0,4.78.89,8.29,2.66,10.44,1.73,2.12,4.37,3.15,8.05,3.15,7.2,0,10.71-4.45,10.71-13.59v-86.49c0-3.11,2.53-5.64,5.64-5.64h12.88c3.11,0,5.64,2.53,5.64,5.64v87.03c0,6.86-1.5,13.02-4.45,18.32-2.96,5.3-7.15,9.46-12.46,12.37-5.29,2.89-11.33,4.36-17.95,4.36Z"/>
      <path class="cls-1" d="M360.62,319.44c2.56,0,4.64,2.08,4.64,4.64v87.03c0,6.73-1.44,12.66-4.32,17.83-2.88,5.16-6.91,9.15-12.07,11.98-5.16,2.82-10.98,4.23-17.47,4.23s-12.28-1.41-17.38-4.23c-5.1-2.82-9.12-6.81-12.06-11.98-2.94-5.16-4.41-11.1-4.41-17.83v-87.03c0-2.56,2.08-4.64,4.64-4.64h12.88c2.56,0,4.64,2.08,4.64,4.64v86.49c0,5.04.96,8.73,2.88,11.07,1.92,2.34,4.86,3.51,8.82,3.51,7.8,0,11.71-4.86,11.71-14.59v-86.49c0-2.56,2.08-4.64,4.64-4.64h12.88M360.62,317.44h-12.88c-3.66,0-6.64,2.98-6.64,6.64v86.49c0,11.28-5.54,12.59-9.71,12.59-3.36,0-5.74-.91-7.28-2.78-1.61-1.96-2.43-5.26-2.43-9.81v-86.49c0-3.66-2.98-6.64-6.64-6.64h-12.88c-3.66,0-6.64,2.98-6.64,6.64v87.03c0,7.04,1.57,13.37,4.68,18.82,3.11,5.46,7.42,9.74,12.83,12.74,5.38,2.97,11.56,4.48,18.35,4.48s12.99-1.51,18.43-4.48c5.48-3,9.8-7.29,12.85-12.76,3.04-5.44,4.57-11.77,4.57-18.8v-87.03c0-3.66-2.98-6.64-6.64-6.64h0Z"/>
    </g>
    <g>
      <path class="cls-4" d="M399.8,444.7c-3.11,0-5.64-2.53-5.64-5.64v-95c0-2-1.63-3.64-3.64-3.64h-12.34c-3.11,0-5.64-2.53-5.64-5.64v-10.72c0-3.11,2.53-5.64,5.64-5.64h55.74c3.11,0,5.64,2.53,5.64,5.64v10.72c0,3.11-2.53,5.64-5.64,5.64h-12.16c-2,0-3.64,1.63-3.64,3.64v95c0,3.11-2.53,5.64-5.64,5.64h-12.7Z"/>
      <path class="cls-1" d="M433.93,319.44c2.56,0,4.64,2.08,4.64,4.64v10.72c0,2.56-2.08,4.64-4.64,4.64h-12.16c-2.56,0-4.64,2.08-4.64,4.64v95c0,2.56-2.08,4.64-4.64,4.64h-12.7c-2.56,0-4.64-2.08-4.64-4.64v-95c0-2.56-2.08-4.64-4.64-4.64h-12.34c-2.56,0-4.64-2.08-4.64-4.64v-10.72c0-2.56,2.08-4.64,4.64-4.64h55.74M433.93,317.44h-55.74c-3.66,0-6.64,2.98-6.64,6.64v10.72c0,3.66,2.98,6.64,6.64,6.64h12.34c1.45,0,2.64,1.18,2.64,2.64v95c0,3.66,2.98,6.64,6.64,6.64h12.7c3.66,0,6.64-2.98,6.64-6.64v-95c0-1.45,1.18-2.64,2.64-2.64h12.16c3.66,0,6.64-2.98,6.64-6.64v-10.72c0-3.66-2.98-6.64-6.64-6.64h0Z"/>
    </g>
  </g>
  <g>
    <path class="cls-4" d="M176.48,93.79v-19.08h10.6v-1c.02-10.97,4.3-21.28,12.06-29.04,7.77-7.77,18.11-12.06,29.1-12.06h20.92c22.66,0,41.12,18.43,41.16,41.09v1h10.49v19.08h-124.33ZM228.24,51.71c-12.13,0-22.04,9.87-22.08,22.01v1s65.08,0,65.08,0v-1c-.02-5.87-2.32-11.38-6.47-15.54-4.18-4.17-9.72-6.46-15.62-6.46h-20.92Z"/>
    <path class="cls-1" d="M249.16,33.62c22.11,0,40.12,17.99,40.16,40.09v2h10.49v17.08h-122.33v-17.08h10.6v-2c.02-10.7,4.2-20.76,11.77-28.33,7.59-7.59,17.67-11.76,28.4-11.76h20.92M205.15,75.71h67.09v-2.01c-.03-6.13-2.43-11.9-6.76-16.25-4.37-4.36-10.16-6.75-16.32-6.75h-20.92c-12.68,0-23.04,10.32-23.08,23v2.01M249.16,31.62h-20.92c-11.64,0-22.18,4.72-29.81,12.35-7.61,7.61-12.33,18.13-12.35,29.74h-10.6v21.08h126.33v-21.08h-10.49c-.04-23.25-18.9-42.09-42.16-42.09h0ZM207.16,73.71c.04-11.61,9.46-21.01,21.08-21.01h20.92c5.82,0,11.09,2.36,14.91,6.17,3.79,3.8,6.15,9.05,6.17,14.84h-63.08Z"/>
  </g>
  <g>
    <path class="cls-4" d="M238.7,162.16c-28.46,0-51.62-23.16-51.62-51.62v-4.2h19.08v4.25c0,17.94,14.6,32.54,32.54,32.54s32.54-14.6,32.54-32.54v-4.25h19.08v4.2c0,13.79-5.37,26.75-15.12,36.5-9.75,9.75-22.71,15.12-36.5,15.12Z"/>
    <path class="cls-1" d="M289.32,107.33v3.2c0,13.52-5.26,26.23-14.83,35.79-9.56,9.56-22.27,14.83-35.79,14.83-27.91,0-50.62-22.71-50.62-50.62v-3.2h17.08v3.25c0,18.49,15.05,33.54,33.54,33.54s33.54-15.05,33.54-33.54v-3.25h17.08M291.32,105.33h-21.08v5.25c0,17.42-14.12,31.54-31.54,31.54h0c-17.42,0-31.54-14.12-31.54-31.54v-5.25h-21.08v5.2c0,29.06,23.56,52.62,52.62,52.62h0c29.06,0,52.62-23.56,52.62-52.62v-5.2h0Z"/>
  </g>
  <path class="cls-5" d="M101.49,215.67h.01"/>
  <g>
    <path class="cls-4" d="M295.47,272.3c-1.79,0-3.25-1.46-3.25-3.25v-28.05c0-2.9-2.36-5.25-5.25-5.25h-96.9c-2.9,0-5.25,2.36-5.25,5.25v28.05c0,1.79-1.46,3.25-3.25,3.25h-12.58c-1.79,0-3.25-1.46-3.25-3.25v-53.34c0-22.72,18.48-41.2,41.2-41.2h63.19c11.01,0,21.35,4.29,29.14,12.08,7.78,7.79,12.07,18.14,12.06,29.14l-.03,53.32c0,1.79-1.46,3.25-3.25,3.25h-12.58ZM272.95,193.81c-2.1,0-3.82,1.73-3.82,3.85v15.18c0,2.11,1.72,3.83,3.83,3.83h15.18c1.13,0,2.19-.49,2.93-1.35.72-.85,1.04-1.96.87-3.05-1.48-9.54-8.88-16.95-18.42-18.42-.2-.03-.39-.04-.58-.04ZM230.81,193.59c-2.11,0-3.83,1.72-3.83,3.83v15.41c0,2.11,1.72,3.83,3.83,3.83h15.41c2.11,0,3.83-1.72,3.83-3.83v-15.41c0-2.11-1.72-3.83-3.83-3.83h-15.41ZM204.08,193.81c-.19,0-.39.01-.58.04-9.54,1.47-16.95,8.88-18.42,18.42-.17,1.09.15,2.21.88,3.05.73.86,1.8,1.35,2.93,1.35h15.18c2.11,0,3.83-1.72,3.83-3.83v-15.18c0-2.12-1.71-3.85-3.82-3.85Z"/>
    <path class="cls-1" d="M270.13,175.51c10.74,0,20.84,4.18,28.43,11.78,7.59,7.6,11.77,17.7,11.77,28.44l-.03,53.32c0,1.24-1.01,2.25-2.25,2.25h-12.58c-1.24,0-2.25-1.01-2.25-2.25v-28.05c0-3.45-2.8-6.25-6.25-6.25h-96.9c-3.45,0-6.25,2.8-6.25,6.25v28.05c0,1.24-1.01,2.25-2.25,2.25h-12.58c-1.24,0-2.25-1.01-2.25-2.25v-53.34c0-22.17,18.03-40.2,40.2-40.2h63.19M230.81,217.67h15.41c2.67,0,4.83-2.17,4.83-4.83v-15.41c0-2.67-2.17-4.83-4.83-4.83h-15.41c-2.67,0-4.83,2.17-4.83,4.83v15.41c0,2.67,2.17,4.83,4.83,4.83M272.97,217.67h15.18c1.42,0,2.76-.62,3.69-1.7.92-1.07,1.32-2.47,1.1-3.85-1.54-9.98-9.28-17.71-19.26-19.26-.24-.04-.49-.06-.73-.06-2.66,0-4.82,2.17-4.82,4.85v15.18c0,2.67,2.17,4.83,4.83,4.83M188.88,217.67h15.18c2.67,0,4.83-2.17,4.83-4.83v-15.18c0-1.29-.5-2.51-1.42-3.43-.91-.91-2.12-1.42-3.4-1.42h0c-.24,0-.49.02-.73.06-9.98,1.54-17.72,9.28-19.26,19.26-.21,1.38.19,2.79,1.1,3.85.92,1.08,2.27,1.7,3.69,1.7M270.13,173.51h-63.19c-23.31,0-42.2,18.89-42.2,42.2v53.34c0,2.35,1.9,4.25,4.25,4.25h12.58c2.35,0,4.25-1.9,4.25-4.25v-28.05c0-2.35,1.9-4.25,4.25-4.25h96.9c2.35,0,4.25,1.9,4.25,4.25v28.05c0,2.35,1.9,4.25,4.25,4.25h12.58c2.35,0,4.25-1.9,4.25-4.25l.03-53.32c.01-23.31-18.89-42.22-42.2-42.22h0ZM230.81,215.67c-1.57,0-2.83-1.27-2.83-2.83v-15.41c0-1.57,1.27-2.83,2.83-2.83h15.41c1.57,0,2.83,1.27,2.83,2.83v15.41c0,1.57-1.27,2.83-2.83,2.83h-15.41ZM272.97,215.67c-1.57,0-2.83-1.27-2.83-2.83v-15.18c0-1.58,1.29-2.85,2.82-2.85.14,0,.28.01.43.03,9.04,1.4,16.19,8.54,17.59,17.59.26,1.71-1.08,3.25-2.81,3.25h-15.18ZM188.88,215.67c-1.73,0-3.08-1.54-2.81-3.25,1.4-9.04,8.54-16.19,17.59-17.59.14-.02.29-.03.43-.03,1.53,0,2.82,1.26,2.82,2.85v15.18c0,1.57-1.27,2.83-2.83,2.83h-15.18Z"/>
  </g>
  <g>
    <g>
      <path class="cls-4" d="M44.47,93.79c-2.67,0-4.84-2.17-4.84-4.84v-9.39c0-2.67,2.17-4.84,4.84-4.84h11.56c2.5,0,4.62-1.92,4.82-4.37.8-9.67,5.03-18.78,11.92-25.67,7.78-7.77,18.11-12.06,29.1-12.06h20.92c22.66,0,41.12,18.43,41.16,41.09v20.08H44.47ZM101.87,51.7c-10.52,0-19.62,7.48-21.66,17.78-.26,1.3.08,2.63.91,3.64.83,1.01,2.05,1.59,3.36,1.59h55.7c1.31,0,2.53-.58,3.36-1.59.84-1.02,1.17-2.35.91-3.64-.85-4.29-2.94-8.2-6.04-11.31-4.18-4.17-9.73-6.46-15.62-6.46h-20.92Z"/>
      <path class="cls-1" d="M122.79,33.62c22.11,0,40.12,17.99,40.16,40.09v19.08H44.47c-2.12,0-3.84-1.72-3.84-3.84v-9.39c0-2.12,1.72-3.84,3.84-3.84h11.56c3.02,0,5.57-2.32,5.82-5.28.78-9.43,4.91-18.33,11.63-25.04,7.59-7.59,17.67-11.76,28.4-11.76h20.92M84.48,75.71h55.7c1.61,0,3.11-.71,4.13-1.95,1.03-1.25,1.44-2.88,1.12-4.47-.89-4.48-3.07-8.57-6.32-11.83-4.37-4.36-10.16-6.75-16.32-6.75h-20.92c-10.99,0-20.51,7.82-22.64,18.58-.31,1.59.09,3.22,1.12,4.47,1.02,1.24,2.53,1.95,4.13,1.95M122.79,31.62h-20.92c-11.64,0-22.18,4.72-29.81,12.35-6.85,6.85-11.36,16.06-12.2,26.29-.16,1.96-1.85,3.45-3.82,3.45h-11.56c-3.23,0-5.84,2.62-5.84,5.84v9.39c0,3.23,2.62,5.84,5.84,5.84h120.48v-21.08c-.04-23.25-18.9-42.09-42.16-42.09h0ZM84.48,73.71c-2.13,0-3.7-1.95-3.29-4.04,1.91-9.68,10.44-16.97,20.68-16.97h20.92c5.82,0,11.09,2.36,14.91,6.17,2.89,2.89,4.94,6.63,5.77,10.8.41,2.09-1.17,4.04-3.29,4.04h-55.7Z"/>
    </g>
    <g>
      <path class="cls-4" d="M112.33,162.15c-28.46,0-51.62-23.16-51.62-51.62,0-2.32,1.89-4.21,4.2-4.21h10.67c2.32,0,4.2,1.89,4.2,4.2,0,17.98,14.6,32.58,32.54,32.58s32.54-14.6,32.54-32.54c0-2.36,1.89-4.25,4.2-4.25h10.67c2.32,0,4.2,1.89,4.2,4.2,0,13.79-5.37,26.75-15.12,36.5-9.75,9.75-22.71,15.12-36.5,15.12Z"/>
      <path class="cls-1" d="M159.74,107.33c1.77,0,3.2,1.44,3.2,3.2,0,13.52-5.26,26.23-14.83,35.79-9.56,9.56-22.27,14.83-35.79,14.83-27.91,0-50.62-22.71-50.62-50.62,0-1.77,1.44-3.2,3.2-3.2h10.67c1.77,0,3.2,1.44,3.2,3.25,0,18.49,15.05,33.54,33.54,33.54s33.54-15.05,33.54-33.58c0-1.77,1.44-3.2,3.2-3.2h10.67M159.74,105.33h-10.67c-2.87,0-5.2,2.33-5.2,5.2v.04c0,17.42-14.12,31.54-31.54,31.54h0c-17.42,0-31.54-14.12-31.54-31.54v-.04c0-2.87-2.33-5.2-5.2-5.2h-10.67c-2.87,0-5.2,2.33-5.2,5.2h0c0,29.06,23.56,52.62,52.62,52.62h0c29.06,0,52.62-23.56,52.62-52.62,0-2.87-2.33-5.2-5.2-5.2h0Z"/>
    </g>
    <g>
      <path class="cls-4" d="M127.15,272.3c-1.98,0-3.58-1.61-3.58-3.58v-47.73c0-2.38,1.94-4.31,4.31-4.31h10.46c2.37,0,4.31,1.93,4.31,4.31v47.74c0,1.98-1.61,3.58-3.58,3.58h-11.92Z"/>
      <path class="cls-1" d="M138.34,217.67c1.82,0,3.31,1.48,3.31,3.31v47.74c0,1.42-1.16,2.58-2.58,2.58h-11.92c-1.42,0-2.58-1.16-2.58-2.58v-47.73c0-1.83,1.49-3.31,3.31-3.31h10.46M138.34,215.67h-10.46c-2.94,0-5.31,2.38-5.31,5.31v47.73c0,2.53,2.05,4.58,4.58,4.58h11.92c2.53,0,4.58-2.05,4.58-4.58v-47.74c0-2.93-2.38-5.31-5.31-5.31h0Z"/>
    </g>
    <g>
      <path class="cls-4" d="M84.4,272.3c-1.65,0-2.99-1.34-2.99-2.99v-30.04c0-1.94-1.58-3.52-3.52-3.52h-16.04c-1.94,0-3.52,1.58-3.52,3.52v30.04c0,1.65-1.34,2.99-2.99,2.99h-13.1c-1.65,0-2.99-1.34-2.99-2.99v-53.6c0-22.72,18.48-41.2,41.2-41.2h68.99c1.55,0,2.92.81,3.66,2.17.76,1.39.69,3.03-.18,4.38-2.04,3.14-3.81,6.49-5.26,9.94-.66,1.58-2.18,2.59-3.87,2.59h-63.38c-5.91,0-11.46,2.3-15.62,6.47-3.44,3.43-5.67,7.97-6.28,12.78-.12.98.17,1.96.82,2.69.64.72,1.55,1.14,2.51,1.14h33.05c3.09,0,5.6,2.51,5.6,5.6v47.04c0,1.65-1.34,2.99-2.99,2.99h-13.1Z"/>
      <path class="cls-1" d="M149.44,175.51c1.2,0,2.21.6,2.78,1.64.58,1.07.53,2.32-.15,3.36-2.07,3.19-3.87,6.59-5.35,10.1-.51,1.2-1.66,1.98-2.95,1.98h-63.37c-6.18,0-11.97,2.4-16.32,6.77-3.59,3.59-5.93,8.34-6.57,13.36-.16,1.26.23,2.53,1.06,3.48.83.94,2.01,1.48,3.26,1.48h33.05c2.54,0,4.6,2.06,4.6,4.6v47.04c0,1.1-.89,1.99-1.99,1.99h-13.1c-1.1,0-1.99-.89-1.99-1.99v-30.04c0-2.49-2.03-4.52-4.52-4.52h-16.04c-2.49,0-4.52,2.03-4.52,4.52v30.04c0,1.1-.89,1.99-1.99,1.99h-13.1c-1.1,0-1.99-.89-1.99-1.99v-53.6c0-22.17,18.03-40.2,40.2-40.2h68.99M149.44,173.51h-68.99c-23.31,0-42.2,18.89-42.2,42.2v53.6c0,2.2,1.79,3.99,3.99,3.99h13.1c2.2,0,3.99-1.79,3.99-3.99v-30.04c0-1.39,1.13-2.52,2.52-2.52h16.04c1.39,0,2.52,1.13,2.52,2.52v30.04c0,2.2,1.79,3.99,3.99,3.99h13.1c2.2,0,3.99-1.79,3.99-3.99v-47.04c0-3.64-2.95-6.6-6.6-6.6h-33.05c-1.44,0-2.52-1.27-2.34-2.7.61-4.74,2.79-8.99,6-12.2,3.81-3.82,9.09-6.18,14.91-6.18h63.37c2.1,0,3.98-1.27,4.79-3.21,1.44-3.43,3.18-6.7,5.18-9.79,2.26-3.49-.16-8.09-4.31-8.09h0Z"/>
    </g>
  </g>
  <g>
    <g>
      <path class="cls-4" d="M313.02,93.79v-20.08c.04-22.66,18.5-41.09,41.16-41.09h20.92c10.99,0,21.33,4.28,29.1,12.06,7.76,7.76,12.04,18.07,12.06,29.03v1h21.08v19.08h-124.32ZM354.18,51.7c-5.89,0-11.44,2.29-15.62,6.46-4.15,4.16-6.44,9.68-6.46,15.54v1s65.08,0,65.08,0v-1c-.05-12.13-9.95-22.01-22.08-22.01h-20.92Z"/>
      <path class="cls-1" d="M375.1,33.62c10.72,0,20.81,4.18,28.4,11.76,7.57,7.57,11.75,17.63,11.76,28.33v2h21.08v17.08h-122.32v-19.08c.04-22.11,18.05-40.09,40.16-40.09h20.92M331.1,75.71h67.09v-2.01c-.05-12.68-10.4-23-23.09-23h-20.92c-6.16,0-11.96,2.4-16.33,6.76-4.33,4.35-6.73,10.11-6.75,16.25v2.01M375.1,31.62h-20.92c-23.26,0-42.12,18.84-42.16,42.09v21.08h126.32v-21.08h-21.08c-.02-11.61-4.74-22.13-12.35-29.74-7.63-7.63-18.17-12.35-29.81-12.35h0ZM333.1,73.71c.02-5.79,2.38-11.04,6.17-14.84,3.82-3.81,9.09-6.17,14.91-6.17h20.92c11.62,0,21.04,9.4,21.08,21.01h-63.08Z"/>
    </g>
    <g>
      <path class="cls-4" d="M364.64,162.15c-13.79,0-26.75-5.37-36.5-15.12-9.75-9.75-15.12-22.71-15.12-36.5v-4.2h19.08v4.25c0,17.94,14.6,32.54,32.54,32.54s32.54-14.6,32.54-32.54v-4.25h19.08v4.21c0,28.46-23.16,51.62-51.62,51.62Z"/>
      <path class="cls-1" d="M415.26,107.33v3.2c0,27.91-22.71,50.62-50.62,50.62-13.52,0-26.23-5.27-35.79-14.83s-14.83-22.27-14.83-35.79v-3.2h17.08v3.25c0,18.49,15.05,33.54,33.54,33.54s33.54-15.05,33.54-33.54v-3.25h17.08M417.26,105.33h-21.08v5.25c0,17.42-14.12,31.54-31.54,31.54h0c-17.42,0-31.54-14.12-31.54-31.54v-5.25h-21.08v5.2c0,29.06,23.56,52.62,52.62,52.62h0c29.06,0,52.62-23.56,52.62-52.62v-5.2h0Z"/>
    </g>
    <g>
      <path class="cls-4" d="M339.19,272.3c-2.68,0-4.87-2.18-4.87-4.87v-45.17c0-3.08,2.51-5.59,5.59-5.59h7.89c3.09,0,5.6,2.51,5.6,5.6v45.17c0,2.68-2.18,4.87-4.87,4.87h-9.35Z"/>
      <path class="cls-1" d="M347.81,217.67c2.54,0,4.6,2.06,4.6,4.6v45.17c0,2.13-1.73,3.87-3.87,3.87h-9.35c-2.13,0-3.87-1.73-3.87-3.87v-45.17c0-2.53,2.06-4.59,4.59-4.59h7.89M347.81,215.67h-7.89c-3.64,0-6.59,2.95-6.59,6.59v45.17c0,3.24,2.63,5.87,5.87,5.87h9.35c3.24,0,5.87-2.63,5.87-5.87v-45.17c0-3.64-2.95-6.6-6.6-6.6h0Z"/>
    </g>
    <g>
      <path class="cls-4" d="M423.19,272.3c-2.51,0-4.55-2.04-4.55-4.55v-32h-23.08v32c0,2.51-2.04,4.55-4.55,4.55h-9.99c-2.51,0-4.54-2.04-4.54-4.55v-45.49c0-3.09,2.51-5.6,5.6-5.6h36.56v-1c0-5.9-2.3-11.44-6.46-15.61-4.16-4.17-9.71-6.47-15.62-6.47h-63.37c-1.69,0-3.2-1.02-3.87-2.59-1.45-3.45-3.23-6.8-5.26-9.94-.87-1.35-.94-2.98-.19-4.38.74-1.36,2.1-2.17,3.66-2.17h68.99c22.72,0,41.2,18.48,41.2,41.2v52.04c0,2.51-2.04,4.55-4.55,4.55h-9.99Z"/>
      <path class="cls-1" d="M396.53,175.51c22.17,0,40.2,18.03,40.2,40.2v52.04c0,1.96-1.59,3.55-3.55,3.55h-9.99c-1.95,0-3.55-1.59-3.55-3.55v-33h-25.08v33c0,1.96-1.59,3.55-3.55,3.55h-9.99c-1.95,0-3.55-1.59-3.55-3.55v-45.49c0-2.54,2.06-4.6,4.6-4.6h37.56v-2c0-6.16-2.4-11.96-6.75-16.31-4.35-4.36-10.15-6.77-16.33-6.77h-63.37c-1.28,0-2.44-.78-2.95-1.98-1.48-3.51-3.28-6.9-5.35-10.1-.67-1.03-.72-2.29-.15-3.36.57-1.05,1.58-1.64,2.78-1.64h68.99M396.53,173.51h-68.99c-4.16,0-6.57,4.6-4.31,8.09,2,3.09,3.74,6.36,5.18,9.79.81,1.93,2.69,3.21,4.79,3.21h63.37c5.82,0,11.1,2.36,14.91,6.18,3.81,3.81,6.17,9.08,6.17,14.9h-35.56c-3.64,0-6.6,2.95-6.6,6.6v45.49c0,3.06,2.48,5.55,5.55,5.55h9.99c3.06,0,5.55-2.48,5.55-5.55v-31h21.08v31c0,3.06,2.48,5.55,5.55,5.55h9.99c3.06,0,5.55-2.48,5.55-5.55v-52.04c0-23.31-18.89-42.2-42.2-42.2h0Z"/>
    </g>
  </g>
</svg>